<svg width="285" height="224" viewBox="0 0 285 224" fill="none" xmlns="http://www.w3.org/2000/svg">
<path d="M14.3753 140.824C14.0343 139.184 13.4441 135.053 12.5785 128.453C11.7261 121.841 11.8179 114.028 12.8408 105.045C13.8769 96.0506 16.3557 86.3136 20.2509 75.8553C24.1592 65.386 30.6513 55.2774 39.7532 45.5404C48.842 35.7924 61.0785 27.0717 76.4364 19.3564C91.7942 11.652 111.31 6.06767 134.983 2.62528C154.026 -0.15049 171.679 -0.729686 187.928 0.909547C204.191 2.54878 218.684 6.53758 231.418 12.8978C244.166 19.258 254.921 28.2082 263.708 39.7812C272.495 51.3433 278.738 65.9106 282.423 83.4832C285.505 98.1925 285.82 112.989 283.381 127.885C280.928 142.758 275.197 156.538 266.187 169.215C257.19 181.903 244.363 192.82 227.707 201.989C211.064 211.147 190.394 217.529 165.685 221.124C122.969 227.342 88.7384 223.474 63.0064 209.551C37.2744 195.585 21.0641 172.69 14.3753 140.824Z" fill="#C8DBFB"/>
<g clip-path="url(#clip0)">
<path d="M61.29 33.073C61.29 33.073 63.952 27.1798 71.2275 28.9352C78.4195 30.6727 81.5171 20.3672 87.9212 21.03C94.3254 21.6927 92.0275 27.6097 100.204 28.9352C108.375 30.2607 110.739 27.0365 114.182 33.073H61.29Z" fill="#D8E9FD"/>
<path d="M169.814 104.22C169.814 104.22 172.476 98.3273 179.752 100.083C186.944 101.82 190.041 91.5147 196.445 92.1774C202.85 92.8402 200.552 98.7572 208.729 100.083C216.899 101.408 219.263 98.184 222.707 104.22H169.814Z" fill="#D8E9FD"/>
<path d="M232.006 195.859C237.013 190.557 247.685 178.831 244.694 160.447C242.653 147.932 241.185 129.088 192.679 116.556C136.612 102.071 144.299 62.228 111.246 45.6294C74.2296 27.0424 40.5139 48.7162 48.81 85.6513C56.8734 121.559 35.2438 122.228 24.6975 143.848C12.5756 168.692 33.3697 195.961 57.0226 195.859H232.006Z" fill="#D8E9FD"/>
<path d="M38.5861 59.6964L39.2605 56.2453L36.0256 55.6124C36.0256 54.7645 35.8764 53.9107 35.5959 53.0868L38.2578 51.2955L36.3002 48.3758L33.7516 50.0894C32.9937 49.3192 32.0984 48.7281 31.1375 48.3281L31.7701 45.0919L28.3204 44.4172L27.6638 47.7489C26.9536 47.7907 26.2493 47.9221 25.5629 48.1549L23.7724 45.492L20.8538 47.4504L22.5668 49.9999C21.7969 50.7582 21.206 51.6538 20.8061 52.6151L17.983 52.0598L17.3026 55.5109L20.2272 56.0841C20.2749 56.9857 20.4778 57.8872 20.8479 58.747L18.2993 60.4606L20.257 63.3803L22.9189 61.5891C23.6829 62.2578 24.5543 62.7534 25.4913 63.0818L24.8527 66.3359L28.3025 67.0106L28.9948 63.4818C29.7528 63.3983 30.5048 63.2012 31.227 62.8907L32.9399 65.4402L35.8585 63.4818L34.068 60.8189C34.5455 60.2696 34.9334 59.6725 35.2378 59.0277L38.5861 59.6964ZM29.9259 58.3112C28.4517 59.3023 26.4463 58.9082 25.4555 57.4335C24.4647 55.9587 24.8587 53.9525 26.3329 52.9614C27.8071 51.9702 29.8125 52.3643 30.8032 53.8391C31.794 55.3139 31.4001 57.32 29.9259 58.3112Z" fill="#D8E9FD"/>
<path d="M194.16 46.4713L194.834 43.0202L191.599 42.3873C191.599 41.5394 191.45 40.6856 191.169 39.8617L193.831 38.0704L191.874 35.1507L189.325 36.8644C188.567 36.0941 187.672 35.503 186.711 35.103L187.344 31.8668L183.894 31.1921L183.237 34.5238C182.527 34.5656 181.823 34.697 181.136 34.9298L179.346 32.2669L176.427 34.2253L178.14 36.7748C177.37 37.5331 176.779 38.4287 176.38 39.39L173.557 38.8347L172.876 42.2858L175.801 42.859C175.848 43.7606 176.051 44.6622 176.421 45.5219L173.873 47.2355L175.83 50.1552L178.492 48.364C179.256 49.0327 180.128 49.5283 181.065 49.8567L180.426 53.1108L183.876 53.7855L184.568 50.2567C185.326 50.1732 186.078 49.9761 186.8 49.6656L188.513 52.2152L191.432 50.2567L189.641 47.5938C190.119 47.0445 190.507 46.4474 190.811 45.8026L194.16 46.4713ZM185.493 45.0861C184.019 46.0772 182.014 45.6831 181.023 44.2084C180.032 42.7336 180.426 40.7274 181.9 39.7363C183.375 38.7451 185.38 39.1392 186.371 40.614C187.362 42.0888 186.968 44.0949 185.493 45.0861Z" fill="#D8E9FD"/>
<path d="M48.4161 39.8677L48.7861 37.981L47.0195 37.6347C47.0195 37.1689 46.9419 36.7032 46.7867 36.2554L48.243 35.2762L47.1687 33.682L45.778 34.6135C45.3662 34.1895 44.8768 33.8671 44.3456 33.6522L44.6918 31.8848L42.8057 31.5146L42.4476 33.3357C42.0597 33.3596 41.6777 33.4313 41.3017 33.5566L40.3229 32.0998L38.7293 33.1745L39.6663 34.5657C39.2426 34.9777 38.9203 35.4673 38.7054 35.9987L37.1596 35.6942L36.7896 37.5809L38.3891 37.8974C38.4189 38.393 38.5264 38.8826 38.7293 39.3542L37.3386 40.2917L38.413 41.8858L39.8693 40.9066C40.2871 41.2709 40.7645 41.5455 41.2719 41.7246L40.9257 43.5039L42.8117 43.8741L43.1877 41.9455C43.5995 41.8978 44.0114 41.7963 44.4053 41.6231L45.3423 43.0143L46.9359 41.9396L45.9571 40.4887C46.2197 40.1901 46.4286 39.8618 46.5957 39.5095L48.4161 39.8677ZM43.6831 39.1094C42.8774 39.6528 41.7792 39.4378 41.242 38.6318C40.6989 37.8257 40.9137 36.7271 41.7195 36.1897C42.5252 35.6464 43.6234 35.8614 44.1606 36.6674C44.7037 37.4735 44.4888 38.5721 43.6831 39.1094Z" fill="#D8E9FD"/>
<path d="M206.228 62.4431L206.598 60.5563L204.831 60.21C204.831 59.7443 204.754 59.2786 204.598 58.8308L206.055 57.8515L204.98 56.2574L203.59 57.1948C203.178 56.7708 202.689 56.4484 202.157 56.2335L202.504 54.4661L200.618 54.0959L200.259 55.917C199.871 55.9409 199.489 56.0126 199.113 56.1379L198.135 54.6811L196.541 55.7558L197.478 57.147C197.054 57.559 196.732 58.0486 196.517 58.58L194.971 58.2755L194.601 60.1622L196.201 60.4787C196.231 60.9743 196.338 61.4639 196.541 61.9355L195.15 62.8729L196.225 64.4671L197.681 63.4879C198.099 63.8522 198.576 64.1268 199.084 64.3059L198.737 66.0852L200.623 66.4554L200.999 64.5268C201.411 64.4791 201.823 64.3776 202.217 64.2044L203.154 65.5956L204.748 64.5209L203.769 63.064C204.031 62.7655 204.24 62.4371 204.407 62.0848L206.228 62.4431ZM201.489 61.6907C200.683 62.2341 199.585 62.0191 199.048 61.2131C198.505 60.407 198.72 59.3084 199.525 58.771C200.331 58.2277 201.429 58.4427 201.966 59.2487C202.51 60.0488 202.295 61.1474 201.489 61.6907Z" fill="#D8E9FD"/>
<path d="M200.623 195.704H138.48V128.127C138.48 119.362 145.582 112.257 154.344 112.257H183.392C192.906 112.257 200.623 119.977 200.623 129.494V195.704Z" fill="#7EE8D4"/>
<path d="M105.075 171.905C111.855 173.75 121.13 151.312 124.281 143.084C124.985 141.251 125.385 140.122 125.385 140.122L115.645 133.453C115.645 133.453 115.042 134.522 114.087 136.301C109.533 144.833 97.041 169.725 105.075 171.905Z" fill="#A5634C"/>
<path d="M114.087 136.301L124.281 143.084C124.985 141.251 125.385 140.122 125.385 140.122L115.645 133.453C115.645 133.447 115.036 134.516 114.087 136.301Z" fill="#0D0A3E"/>
<path d="M132.553 132.838L132.482 133.322L132.338 134.277L131.819 137.752L131.545 139.591L131.413 140.469L131.21 141.836L130.602 145.884L123.881 141.364L123.857 141.346L123.821 141.323L123.01 140.773L122.95 140.731L121.022 139.436L120.085 138.803L113.365 134.289C114.839 131.477 116.349 128.73 117.853 126.151C118.235 125.5 118.617 124.855 118.999 124.228C119.327 123.685 119.655 123.148 119.984 122.622C120.067 122.479 120.157 122.336 120.246 122.198C124.43 115.565 128.465 110.603 131.545 109.331C131.795 109.23 132.04 109.152 132.279 109.098L132.285 109.648L132.321 112.896L132.332 114.156L132.362 116.783L132.374 117.822L132.41 121.123L132.422 122.282L132.452 125.088L132.458 125.978L132.494 129.369L132.506 130.402L132.553 132.838Z" fill="#0071CE"/>
<path d="M122.95 140.743L123.01 140.785L123.822 141.334L124.287 138.964L126.561 127.381C126.609 127.118 126.442 126.861 126.173 126.808C125.91 126.754 125.648 126.927 125.6 127.196L123.738 136.713L123.314 138.892L122.95 140.743Z" fill="white"/>
<path d="M196.201 154.53L195.497 154.584L193.366 154.751L191.957 154.858L185.625 155.348L184.079 155.467L183.375 155.521L181.99 155.629L177.669 155.963C177.358 154.769 177.311 154.178 177.311 154.178L177.305 154.578L177.197 160.823L177.018 171.135C177.018 171.135 177.054 182.981 176.917 195.65H114.791C115.543 191.059 116.427 185.614 117.388 179.756C117.441 179.422 117.501 179.088 117.555 178.747C117.746 177.571 117.943 176.371 118.146 175.165C118.241 174.574 118.342 173.977 118.438 173.38C118.48 173.135 118.522 172.89 118.563 172.645C118.635 172.215 118.707 171.785 118.778 171.355C119.184 168.907 119.596 166.424 120.008 163.934C120.038 163.773 120.061 163.611 120.091 163.45C120.36 161.844 120.628 160.238 120.897 158.632C120.975 158.178 121.052 157.73 121.124 157.282C121.225 156.673 121.327 156.07 121.428 155.467C121.512 154.966 121.601 154.47 121.685 153.975C122.425 149.622 123.159 145.365 123.857 141.364C124.203 139.382 124.55 137.466 124.878 135.627C124.896 135.513 124.92 135.4 124.938 135.292C124.961 135.149 124.991 135.006 125.015 134.862C125.027 134.791 125.039 134.719 125.051 134.653C125.093 134.426 125.135 134.2 125.176 133.973C125.206 133.829 125.23 133.686 125.254 133.537C126.101 128.886 127.307 122.849 128.543 117.959C128.722 117.255 128.901 116.574 129.08 115.923C129.145 115.672 129.217 115.427 129.289 115.189C129.402 114.795 129.515 114.418 129.623 114.054C130.339 111.72 131.037 110.024 131.658 109.457C131.736 109.385 131.813 109.331 131.891 109.296C132.022 109.236 132.159 109.176 132.291 109.116C132.416 109.063 132.535 109.009 132.655 108.955C134.953 107.952 137.215 107.128 139.345 106.459C139.751 106.334 140.157 106.209 140.551 106.095C140.915 105.988 141.273 105.886 141.625 105.785C142.27 105.606 142.891 105.438 143.499 105.289C149.205 103.856 153.252 103.558 153.252 103.558L166.687 103.946C166.687 103.946 169.212 105.409 173.306 108.334C173.873 108.74 174.47 109.17 175.09 109.636C177.549 111.451 180.426 113.702 183.584 116.383C183.584 116.383 183.966 116.651 184.592 117.201L184.604 117.213C184.813 117.398 185.052 117.613 185.308 117.864C187.159 119.643 190.113 123.046 192.184 128.205C192.315 128.527 192.459 128.963 192.62 129.495C192.793 130.062 192.978 130.742 193.169 131.513C193.235 131.769 193.294 132.032 193.366 132.307C193.449 132.659 193.533 133.029 193.622 133.411C194.07 135.424 194.536 137.83 194.947 140.421C195.013 140.839 195.079 141.263 195.144 141.693C195.359 143.15 195.55 144.648 195.711 146.165C195.765 146.643 195.813 147.12 195.855 147.598C195.902 148.123 195.944 148.649 195.986 149.168C196.028 149.694 196.058 150.213 196.087 150.733C196.153 151.837 196.189 152.924 196.195 153.987C196.201 154.166 196.201 154.351 196.201 154.53Z" fill="#0071CE"/>
<path d="M159.692 181.566C159.674 181.554 159.656 181.542 159.638 181.53C159.59 181.494 154.643 177.876 149.856 172.114C145.415 166.77 140.205 158.435 140.569 149.055C140.581 148.786 140.808 148.577 141.076 148.589C141.345 148.601 141.554 148.828 141.542 149.097C141.19 158.16 146.269 166.274 150.59 171.481C155.299 177.153 160.163 180.712 160.211 180.748C160.426 180.909 160.48 181.213 160.318 181.428C160.175 181.625 159.907 181.685 159.692 181.566Z" fill="white"/>
<path d="M160.659 120.389C160.921 120.473 161.208 120.341 161.309 120.079C161.417 119.81 161.285 119.499 161.011 119.398C150.095 115.099 149.128 107.653 149.122 107.582C149.086 107.295 148.829 107.086 148.543 107.116C148.256 107.146 148.047 107.409 148.077 107.695C148.113 108.024 149.08 115.833 160.629 120.383C160.641 120.383 160.653 120.389 160.659 120.389Z" fill="white"/>
<path d="M155.168 121.864C155.424 121.948 155.711 121.822 155.818 121.565C155.932 121.297 155.8 120.986 155.532 120.879C149.551 118.389 148.817 114.968 148.811 114.932C148.758 114.645 148.477 114.46 148.191 114.514C147.904 114.568 147.719 114.848 147.773 115.135C147.803 115.296 148.626 119.147 155.126 121.852C155.144 121.852 155.156 121.858 155.168 121.864Z" fill="white"/>
<path d="M173.389 133.764L174.738 143.371L175.049 145.568L177.197 160.835L177.305 154.59L175.998 145.311L174.356 133.626C174.315 133.358 174.076 133.173 173.807 133.214C173.539 133.25 173.348 133.495 173.389 133.764Z" fill="white"/>
<path d="M175.514 145.872C175.61 145.872 175.705 145.842 175.789 145.789C176.01 145.639 176.069 145.335 175.92 145.114L172.715 140.379C172.566 140.158 172.261 140.099 172.041 140.248C171.82 140.397 171.76 140.702 171.909 140.928L175.114 145.663C175.204 145.795 175.359 145.872 175.514 145.872Z" fill="white"/>
<path d="M130.608 195.656C130.626 195.543 130.685 195.435 130.781 195.364C130.99 195.197 131.3 195.232 131.467 195.441C131.527 195.513 131.586 195.585 131.646 195.656H130.608Z" fill="#0071CE"/>
<path d="M142.3 195.656C136.678 192.826 130.548 188.384 127.229 181.649C127.11 181.41 127.212 181.118 127.45 180.998C127.695 180.879 127.982 180.98 128.101 181.219C131.664 188.456 138.641 192.976 144.556 195.656H142.3Z" fill="white"/>
<path d="M156.332 109.576C163.667 112.556 167.588 105.05 167.588 105.05C166.006 101.778 164.711 95.4792 164.335 92.4043C164.144 90.8519 164.091 89.813 164.091 89.813L150.471 98.6855L151.193 104.364L151.372 105.749C151.366 105.749 151.831 107.749 156.332 109.576Z" fill="#A5634C"/>
<path d="M151.193 104.364C158.612 102.149 162.849 95.2583 164.24 91.5863C164.049 90.0339 164.091 89.813 164.091 89.813L150.471 98.6855L151.193 104.364Z" fill="#0D0A3E"/>
<path d="M139.119 78.0803C139.119 78.0803 137.334 74.5397 133.783 75.8831C130.238 77.2265 132.804 92.3863 141.649 89.7711L139.119 78.0803Z" fill="#995037"/>
<path d="M134.356 76.6117C134.457 77.6446 134.684 79.2448 135.072 81.1614V81.1673C135.341 82.4809 135.675 83.9378 136.099 85.4543C136.182 85.7469 136.266 86.0454 136.355 86.338C136.439 86.6365 136.528 86.9291 136.624 87.2336C136.725 87.556 136.827 87.8785 136.94 88.2009C137.077 88.6129 137.221 89.0308 137.376 89.4428C137.609 90.0757 137.853 90.7146 138.122 91.3355C141.017 98.2497 146.705 102.459 154.183 99.8976C160.468 97.7362 163.924 92.8461 165.798 87.6456C168.794 79.3343 167.749 70.2289 167.749 70.2289C166.239 57.8396 155.305 53.9347 144.299 58.6039C133.287 63.279 133.795 70.8081 134.356 76.6117Z" fill="#A5634C"/>
<path d="M165.01 76.6594C165.01 76.6594 167.081 83.9079 165.899 89.407C164.717 94.906 158.003 104.937 148.041 102.28C138.08 99.617 136.934 88.2069 136.934 88.2069C136.934 88.2069 138.241 89.5622 141.649 89.7712C145.051 89.9802 144.824 87.0067 151.014 88.2069C157.203 89.407 160.629 85.526 161.142 82.8272C161.655 80.1284 161.685 78.3193 161.685 78.3193L165.01 76.6594Z" fill="#0D0A3E"/>
<path d="M153.873 89.0845C153.873 89.0845 146.531 90.8518 142.3 90.7563C142.3 90.7563 143.607 95.927 149.45 94.5776C153.879 93.5566 153.873 89.0845 153.873 89.0845Z" fill="white"/>
<path d="M153.526 83.7943C153.622 84.3496 155.21 84.5407 157.066 84.2242C158.928 83.9018 160.354 83.1913 160.259 82.636C160.163 82.0807 158.576 81.8897 156.72 82.2061C154.857 82.5285 153.431 83.239 153.526 83.7943Z" fill="#995037"/>
<path d="M136.355 86.3439C136.439 86.6425 136.528 86.935 136.624 87.2395C136.725 87.5619 136.827 87.8844 136.94 88.2068C137.256 88.1769 137.591 88.1351 137.937 88.0814C139.793 87.759 141.226 87.0485 141.13 86.4932C141.035 85.9379 139.447 85.7468 137.591 86.0633C137.149 86.1349 136.731 86.2305 136.355 86.3439Z" fill="#995037"/>
<path d="M149.199 74.7069C149.056 74.6293 148.937 74.5098 148.853 74.3546C148.632 73.9307 148.793 73.4053 149.217 73.1843C149.361 73.1067 150.668 72.4499 152.166 72.7485C153.729 73.0649 154.583 73.7695 154.672 73.8531C155.037 74.1695 155.072 74.7128 154.756 75.0771C154.446 75.4353 153.903 75.4771 153.538 75.1666C153.515 75.1487 152.918 74.671 151.82 74.4501C150.912 74.265 150.035 74.7128 150.023 74.7188C149.754 74.8621 149.444 74.8442 149.199 74.7069Z" fill="#0D0A3E"/>
<path d="M141.452 76.1579C141.548 76.0265 141.613 75.8653 141.625 75.6921C141.655 75.2145 141.291 74.8025 140.814 74.7726C140.653 74.7607 139.19 74.695 137.949 75.5847C136.648 76.5101 136.164 77.5073 136.111 77.6207C135.908 78.0566 136.099 78.57 136.534 78.7731C136.964 78.9701 137.477 78.791 137.68 78.3551C137.692 78.3252 138.044 77.6446 138.957 76.9938C139.709 76.4564 140.694 76.4982 140.706 76.5042C141.005 76.5221 141.279 76.3847 141.452 76.1579Z" fill="#0D0A3E"/>
<path d="M160.772 74.056C160.772 74.056 161.518 77.6743 161.685 78.3131C163.297 78.3191 164.24 78.128 165.01 76.6533C165.046 75.6741 164.992 74.9337 164.992 74.9337C165.857 72.8857 167.869 71.8647 167.869 71.8647C164.043 68.4435 155.514 68.9391 155.514 68.9391C156.976 72.1752 159.829 73.0828 160.772 74.056Z" fill="#0D0A3E"/>
<path d="M167.863 71.8648C167.863 71.8648 172.393 67.4942 170.357 63.8879C169.188 61.8101 165.965 62.837 165.965 62.837C165.965 62.837 168.907 54.3944 166.55 52.1912C164.192 49.988 160.068 53.4391 160.068 53.4391C160.068 53.4391 159.023 44.2799 152.762 44.3874C147.26 44.4829 151.014 52.3822 151.014 52.3822C151.014 52.3822 141.106 46.2145 136.946 48.561C130.578 52.1434 139.137 57.8574 139.137 57.8574C139.137 57.8574 127.104 53.8809 128.638 60.4368C129.372 63.5714 134.016 64.9447 134.016 64.9447C134.016 64.9447 129.056 66.7359 128.74 68.9153C128.196 72.6529 133.658 71.5484 133.658 71.5484C133.461 72.8142 134.01 74.0441 134.201 74.8203L136.379 73.9128C136.379 73.9128 136.254 70.7722 136.952 68.9093C136.952 68.9093 152.112 69.7332 155.759 64.7477C155.759 64.7477 154.01 65.9299 155.508 68.9332L167.863 71.8648Z" fill="#0D0A3E"/>
<path d="M136.379 73.9128C136.379 73.9128 136.63 75.7697 135.746 77.6207C135.287 78.576 135.06 79.6268 135.144 80.6837L135.245 81.9733C135.245 81.9733 133.449 76.9579 134.201 74.8204L136.379 73.9128Z" fill="#0D0A3E"/>
<path d="M150.894 79.0357C151.079 80.0089 151.664 80.7195 152.196 80.618C152.727 80.5165 153.007 79.6447 152.822 78.6715C152.637 77.6983 152.052 76.9877 151.521 77.0892C150.99 77.1848 150.709 78.0625 150.894 79.0357Z" fill="#0D0A3E"/>
<path d="M139.274 81.3404C139.459 82.3136 140.044 83.0241 140.575 82.9226C141.106 82.8211 141.387 81.9494 141.202 80.9762C141.017 80.0029 140.432 79.2924 139.9 79.3939C139.369 79.4954 139.089 80.3672 139.274 81.3404Z" fill="#0D0A3E"/>
<path d="M148.226 86.5111C148.465 86.4096 148.614 86.1588 148.573 85.8961C148.525 85.5856 148.232 85.3706 147.922 85.4184C147.409 85.502 146.985 85.5378 146.687 85.5498C146.525 83.6391 146.71 80.9523 146.716 80.9224C146.74 80.606 146.502 80.3313 146.185 80.3134C145.869 80.2895 145.594 80.5284 145.576 80.8448C145.565 80.9821 145.344 84.1944 145.612 86.2066C145.648 86.4812 145.881 86.6902 146.155 86.7021C146.185 86.7021 146.931 86.726 148.101 86.5469C148.143 86.5409 148.191 86.529 148.226 86.5111Z" fill="#995037"/>
<path d="M164.992 74.9338C164.992 74.9338 166.186 71.1543 169.904 71.9126C173.622 72.6708 174.971 86.2304 165.821 85.0661L164.992 74.9338Z" fill="#A5634C"/>
<path d="M167.415 82.1644C167.666 82.0629 167.809 81.7942 167.755 81.5196C166.914 77.4893 169.695 75.0891 169.725 75.0652C169.964 74.8622 169.999 74.5039 169.796 74.2591C169.593 74.0203 169.235 73.9845 168.991 74.1875C168.853 74.3009 165.66 77.0534 166.639 81.7465C166.705 82.0569 167.009 82.254 167.314 82.1883C167.349 82.1883 167.385 82.1764 167.415 82.1644Z" fill="#995037"/>
<path d="M170.005 78.8266C170.184 78.755 170.316 78.5938 170.351 78.3908C170.399 78.0803 170.19 77.7877 169.88 77.734C169.671 77.6982 167.821 77.4295 166.747 78.3788C166.508 78.5878 166.49 78.952 166.699 79.1849C166.908 79.4237 167.266 79.4416 167.505 79.2327C168.072 78.7311 169.307 78.7968 169.695 78.8625C169.802 78.8804 169.91 78.8684 170.005 78.8266Z" fill="#995037"/>
<path d="M167.721 77.3219C167.721 77.3219 167.488 78.5399 167.583 79.8296C167.583 79.8296 169.314 79.7222 169.38 78.4743C169.458 77.0293 167.721 77.3219 167.721 77.3219Z" fill="white"/>
<path d="M168.072 78.4744L167.564 78.6774C167.564 78.6774 167.427 82.9465 168.37 82.8927C169.17 82.845 168.561 78.8505 168.561 78.8505L168.072 78.4744Z" fill="white"/>
<path d="M147.087 80.8927C146.693 77.6744 148.984 74.7309 152.207 74.3368C155.43 73.9427 158.367 76.2355 158.761 79.4597C159.155 82.6779 156.863 85.6215 153.64 86.0156C150.423 86.4097 147.486 84.1109 147.087 80.8927ZM147.827 80.8031C148.173 83.6153 150.739 85.6215 153.55 85.2752C156.361 84.9289 158.367 82.3615 158.021 79.5493C157.675 76.737 155.108 74.7309 152.297 75.0772C149.486 75.4235 147.48 77.9909 147.827 80.8031Z" fill="white"/>
<path d="M156.982 76.9519C157.066 77.0175 157.167 77.0414 157.263 77.0295C157.358 77.0175 157.448 76.9698 157.507 76.8921C157.543 76.8444 160.533 73.459 166.06 73.1306C166.329 72.8559 166.448 72.7484 166.872 72.426C160.575 72.426 157.048 76.2652 156.917 76.4264C156.797 76.5876 156.821 76.8205 156.982 76.9519Z" fill="white"/>
<path d="M133.658 83.2809C133.264 80.0626 135.555 77.119 138.778 76.725C142.001 76.3309 144.938 78.6237 145.332 81.8479C145.726 85.0661 143.434 88.0097 140.211 88.4038C136.994 88.7978 134.051 86.4991 133.658 83.2809ZM134.398 83.1913C134.744 86.0035 137.31 88.0097 140.121 87.6634C142.932 87.3171 144.938 84.7497 144.592 81.9374C144.246 79.1252 141.679 77.119 138.868 77.4653C136.057 77.8116 134.051 80.3791 134.398 83.1913Z" fill="white"/>
<path d="M144.717 81.1016C144.848 81.0837 144.968 81.0001 145.021 80.8687C145.033 80.8448 145.302 80.194 146.03 80.0447C146.693 79.9074 147.134 80.4149 147.14 80.4209C147.272 80.5761 147.51 80.6 147.666 80.4627C147.821 80.3313 147.845 80.0925 147.707 79.9373C147.677 79.9014 146.973 79.0894 145.875 79.3163C144.747 79.5551 144.341 80.5582 144.329 80.6C144.252 80.7911 144.347 81.006 144.538 81.0837C144.598 81.1016 144.657 81.1075 144.717 81.1016Z" fill="white"/>
<path d="M178.935 155.873C178.958 156.375 178.982 156.948 179.012 157.563C179.018 157.712 179.024 157.862 179.03 158.017C179.191 161.689 179.406 166.842 179.663 170.161C179.866 172.812 180.104 175.517 180.373 178.061C180.427 178.562 180.48 179.058 180.534 179.541C180.534 179.559 180.54 179.583 180.54 179.601C180.606 180.168 180.671 180.729 180.743 181.273C180.976 183.124 181.232 184.819 181.513 186.258C182.665 192.205 186.055 195.692 189.176 195.209C191.337 194.868 193.378 192.623 194.447 187.954C196.231 180.144 196.088 167.116 195.33 159.73C195.282 159.259 195.133 157.456 195.02 156.106C194.966 155.467 194.918 154.936 194.894 154.685C194.894 154.667 194.888 154.649 194.888 154.631L178.935 155.873Z" fill="#A5634C"/>
<path d="M178.922 155.874C178.952 156.501 178.976 157.223 179.006 158.017H179.024L195.013 156.34C194.953 155.599 194.912 154.978 194.888 154.692C194.888 154.674 194.882 154.656 194.882 154.638L178.928 155.874H178.922Z" fill="#0D0A3E"/>
<path d="M112.744 166.567C112.744 166.567 116.092 162.513 105.797 149.401C95.5012 136.289 94.0509 131.411 90.428 129.226C80.9143 123.482 95.0655 171.72 105.081 171.911C110.196 172 112.744 166.567 112.744 166.567Z" fill="#A5634C"/>
<path d="M83.3316 126.181C83.3316 126.181 80.031 124.043 79.7804 120.956C79.5297 117.869 81.559 115.684 81.559 115.684L83.3316 126.181Z" fill="#EAF7FB"/>
<path d="M79.5714 109.188L83.5941 127.984C83.7672 128.802 84.4715 129.393 85.2951 129.435C85.3309 129.435 85.3608 129.435 85.3966 129.435L95.3221 129.417C96.4919 129.417 97.3633 128.336 97.1186 127.19L93.0959 108.394C92.9109 107.546 92.1588 106.937 91.2934 106.937H89.6461L81.3679 106.949C80.1981 106.961 79.3267 108.042 79.5714 109.188Z" fill="#3C3C6A"/>
<path d="M79.5714 109.188L83.5941 127.984C83.7672 128.802 84.4715 129.394 85.2951 129.435L93.5734 129.423C94.7432 129.423 95.6146 128.343 95.3699 127.196L91.3471 108.4C91.1741 107.582 90.4698 106.991 89.6461 106.949L81.3679 106.961C80.1981 106.961 79.3267 108.042 79.5714 109.188Z" fill="#0D0A3E"/>
<path d="M85.0086 117.738C85.0086 118.771 85.8442 119.607 86.8767 119.607C87.9093 119.607 88.7449 118.771 88.7449 117.738C88.7449 116.705 87.9093 115.869 86.8767 115.869C85.8442 115.875 85.0086 116.705 85.0086 117.738Z" fill="#3C3C6A"/>
<path d="M87.9153 135.883C87.9153 135.883 83.063 129.166 80.8725 121.81C78.6821 114.454 79.7923 108.281 79.7923 108.281C79.7923 108.281 80.7412 107.248 81.3679 110.848C81.9946 114.448 82.5676 117.213 82.5676 117.213C82.5676 117.213 81.3261 105.367 82.5676 105.116C83.9523 104.841 85.0684 116.711 85.0684 116.711C85.0684 116.711 84.8117 106.507 85.7488 105.934C86.6858 105.361 87.2588 113.923 87.6766 116.269C87.6766 116.269 87.8795 109.851 88.924 109.433C89.9685 109.015 89.9565 116.86 90.631 119.153C91.3114 121.446 93.9315 123.387 94.0389 127.088C94.1464 130.796 92.9288 136.851 87.9153 135.883Z" fill="#A5634C"/>
<path d="M151.629 195.68C151.629 195.68 168.651 195.806 181.966 195.656C182.08 195.656 187.308 195.662 187.421 195.656C188.006 195.615 188.597 195.465 189.182 195.209C191.343 194.271 193.348 191.883 194.142 188.032L194.375 186.921C194.93 184.216 193.664 181.428 191.211 180.156C191.134 180.114 191.05 180.073 190.967 180.037C190.143 179.643 190.137 179.756 189.313 179.541C187.278 179.004 185.302 178.879 183.369 179.064C183.196 179.082 183.029 179.099 182.855 179.117C182.724 179.129 182.587 179.153 182.456 179.171C181.811 179.261 181.172 179.386 180.54 179.541C180.48 179.553 180.42 179.571 180.367 179.589C176.935 180.449 173.604 182.139 170.268 184.031C163.38 187.948 151.33 190.02 151.33 190.02C148.513 193.053 151.629 195.68 151.629 195.68Z" fill="#A5634C"/>
<path d="M180.361 179.589C180.42 179.595 180.48 179.595 180.54 179.601C182.109 179.744 184.318 180.174 186.562 181.362C186.562 181.362 185.189 180.037 183.363 179.064C182.438 178.568 181.405 178.162 180.372 178.061C180.426 178.562 180.48 179.058 180.534 179.541C180.48 179.553 180.42 179.571 180.361 179.589Z" fill="#0D0A3E"/>
<path d="M151.324 189.686C151.324 189.686 143.858 186.957 138.737 188.074C133.616 189.19 131.574 195.489 131.574 195.489L151.408 195.256C151.414 195.256 154.076 190.522 151.324 189.686Z" fill="#A5634C"/>
<path d="M38.8726 172.782L44.089 194.856C44.2263 195.447 44.7515 195.859 45.3603 195.859H77.5004C78.3419 195.859 78.9627 195.071 78.7717 194.253L73.5552 172.179C73.418 171.588 72.8927 171.176 72.284 171.176H40.1379C39.2964 171.182 38.6756 171.964 38.8726 172.782Z" fill="#00BAD9"/>
<path d="M42.6626 194.158C42.5611 194.158 42.4716 194.086 42.4477 193.984L37.9774 175.075C37.9475 174.956 38.0251 174.836 38.1445 174.806C38.2638 174.777 38.3832 174.854 38.413 174.974L42.8834 193.883C42.9133 194.002 42.8357 194.122 42.7163 194.152C42.6924 194.158 42.6805 194.158 42.6626 194.158Z" fill="#0092C4"/>
<path d="M71.0068 171.182L76.5634 195.865H77.5004C78.342 195.865 78.9627 195.077 78.7717 194.259L73.5553 172.185C73.418 171.594 72.8928 171.182 72.284 171.182H71.0068Z" fill="#0092C4"/>
<path d="M54.7487 184.843C54.7487 186.193 55.841 187.285 57.1898 187.285C58.5387 187.285 59.6309 186.193 59.6309 184.843C59.6309 183.494 58.5387 182.401 57.1898 182.401C55.8469 182.395 54.7487 183.488 54.7487 184.843Z" fill="#0092C4"/>
<path d="M96.7188 195.704H172.142C172.828 195.704 173.384 195.149 173.384 194.462V192.283C173.384 191.596 172.828 191.041 172.142 191.041H96.7188C96.0325 191.041 95.4774 191.596 95.4774 192.283V194.462C95.4834 195.149 96.0384 195.704 96.7188 195.704Z" fill="#F7891B"/>
<path d="M69.9921 152.989L79.6371 193.799C79.8937 194.886 80.8666 195.656 81.9827 195.656H141.399C142.95 195.656 144.102 194.205 143.744 192.695L134.099 151.885C133.842 150.798 132.87 150.028 131.754 150.028H72.3377C70.7859 150.028 69.6339 151.479 69.9921 152.989Z" fill="#FFAE0B"/>
<path d="M129.402 150.028L139.674 195.656H141.404C142.956 195.656 144.108 194.205 143.75 192.695L134.105 151.885C133.848 150.798 132.876 150.028 131.759 150.028H129.402Z" fill="#F7891B"/>
<path d="M103.869 179.798C106.364 179.798 108.387 177.774 108.387 175.278C108.387 172.782 106.364 170.758 103.869 170.758C101.374 170.758 99.3509 172.782 99.3509 175.278C99.3509 177.774 101.374 179.798 103.869 179.798Z" fill="#F7891B"/>
<path d="M142.353 185.942C142.252 185.942 142.162 185.87 142.139 185.769L134.38 152.93C134.35 152.81 134.427 152.691 134.547 152.661C134.666 152.631 134.785 152.709 134.815 152.828L142.574 185.667C142.604 185.787 142.527 185.906 142.407 185.936C142.389 185.942 142.371 185.942 142.353 185.942Z" fill="white"/>
<path d="M0.871515 195.716H268.747C269.231 195.716 269.619 196.11 269.619 196.588V198.122C269.619 198.606 269.225 198.994 268.747 198.994H0.871515C0.388071 198.994 0.00012207 198.6 0.00012207 198.122V196.588C0.00012207 196.104 0.39404 195.716 0.871515 195.716Z" fill="#5193F4"/>
<path d="M238.823 81.3359C246.721 76.7399 249.399 66.6088 244.805 58.7074C240.211 50.8061 230.084 48.1266 222.185 52.7226C214.287 57.3186 211.609 67.4497 216.203 75.351C220.797 83.2524 230.924 85.9319 238.823 81.3359Z" fill="#0D0A3E"/>
<path d="M243.418 75.1051C247.88 67.9641 245.712 58.5561 238.573 54.0916C231.435 49.6271 222.031 51.7968 217.568 58.9378C213.105 66.0788 215.274 75.4869 222.412 79.9513C229.55 84.4158 238.955 82.2461 243.418 75.1051Z" fill="white"/>
<path d="M230.543 53.1584H229.97V56.3409H230.543V53.1584Z" fill="#0D0A3E"/>
<path d="M230.543 77.6206H229.97V80.803H230.543V77.6206Z" fill="#0D0A3E"/>
<path d="M219.621 66.6941H216.44V67.2673H219.621V66.6941Z" fill="#0D0A3E"/>
<path d="M244.074 66.6941H240.892V67.2673H244.074V66.6941Z" fill="#0D0A3E"/>
<path d="M239.814 56.9939L237.565 59.2449L237.971 59.6501L240.219 57.3991L239.814 56.9939Z" fill="#0D0A3E"/>
<path d="M222.529 74.2976L220.28 76.5479L220.685 76.9532L222.934 74.7029L222.529 74.2976Z" fill="#0D0A3E"/>
<path d="M220.689 57.0031L220.284 57.4084L222.533 59.6587L222.939 59.2534L220.689 57.0031Z" fill="#0D0A3E"/>
<path d="M237.99 74.2927L237.585 74.698L239.835 76.9486L240.24 76.5433L237.99 74.2927Z" fill="#0D0A3E"/>
<g opacity="0.15">
<path opacity="0.15" d="M245.739 67.0226C245.739 67.3152 245.733 67.6078 245.715 67.8944C245.262 59.8876 238.613 53.5168 230.502 53.5168C222.39 53.5168 215.736 59.8876 215.288 67.8944C215.27 67.6078 215.264 67.3152 215.264 67.0226C215.264 58.6158 222.098 51.7793 230.508 51.7793C238.905 51.7733 245.739 58.6158 245.739 67.0226Z" fill="#0D0A3E"/>
</g>
<path d="M230.154 66.5981L229.975 67.0537L235.362 69.1758L235.541 68.7202L230.154 66.5981Z" fill="#7EE8D4"/>
<path d="M230.502 67.2255H221.609V66.7359H230.012V59.8337H230.502V67.2255Z" fill="#0D0A3E"/>
<path d="M188.209 67.751L180.963 67.7749C180.14 67.7749 179.471 68.4496 179.477 69.2735L179.543 88.6964C179.549 89.9801 180.587 91.013 181.871 91.013L207.278 90.9235C208.054 90.9235 208.681 90.2906 208.675 89.5144L208.615 71.423C208.615 70.7483 208.066 70.2109 207.398 70.2109L192.578 70.2647L188.209 67.751Z" fill="#F7891B"/>
<path d="M208.681 89.5144L208.639 76.9519L179.507 77.0534L179.549 89.6159C179.549 90.3921 180.182 91.019 180.957 91.013L207.278 90.9235C208.054 90.9235 208.681 90.2906 208.681 89.5144Z" fill="#FFAE0B"/>
<path d="M181.119 75.3398L181.125 77.0414L206.926 76.9519L206.92 75.2502C206.914 74.1814 206.043 73.3157 204.974 73.3157L183.052 73.3933C181.978 73.3993 181.113 74.271 181.119 75.3398Z" fill="white"/>
<path d="M204.736 75.2144L204.742 76.9698L203.608 76.9758L203.602 75.2204C203.602 74.9099 203.852 74.6532 204.163 74.6532C204.479 74.6472 204.73 74.898 204.736 75.2144Z" fill="#D8E9FD"/>
<path d="M202.181 75.2203L202.187 76.9697L201.053 76.9757L201.047 75.2203C201.047 74.9098 201.298 74.6531 201.608 74.6531C201.925 74.6531 202.181 74.9098 202.181 75.2203Z" fill="#D8E9FD"/>
<path d="M199.627 75.2263L199.633 76.9817L198.499 76.9877L198.493 75.2382C198.493 74.9277 198.743 74.671 199.054 74.671C199.37 74.665 199.627 74.9158 199.627 75.2263Z" fill="#D8E9FD"/>
<path d="M197.072 75.2384L197.078 76.9937L195.944 76.9997L195.938 75.2443C195.938 74.9338 196.189 74.6771 196.499 74.6771C196.816 74.6711 197.072 74.9279 197.072 75.2384Z" fill="#D8E9FD"/>
<path d="M194.518 75.2443L194.524 76.9998L193.39 77.0057L193.384 75.2563C193.384 74.9458 193.634 74.6891 193.945 74.6891C194.261 74.6831 194.518 74.9339 194.518 75.2443Z" fill="#D8E9FD"/>
<path d="M191.963 75.2562L191.969 77.0116L190.835 77.0175L190.829 75.2621C190.829 74.9517 191.08 74.6949 191.39 74.6949C191.707 74.689 191.963 74.9457 191.963 75.2562Z" fill="#D8E9FD"/>
<path d="M189.409 75.2622L189.415 77.0176L188.281 77.0235L188.275 75.2681C188.275 74.9577 188.525 74.7009 188.836 74.7009C189.152 74.7009 189.409 74.9517 189.409 75.2622Z" fill="#D8E9FD"/>
<path d="M186.86 75.2742L186.866 77.0296L185.732 77.0356L185.726 75.2802C185.726 74.9697 185.977 74.713 186.293 74.713C186.604 74.707 186.854 74.9638 186.86 75.2742Z" fill="#D8E9FD"/>
<path d="M184.306 75.2802L184.312 77.0356L183.178 77.0416L183.172 75.2862C183.172 74.9757 183.422 74.719 183.733 74.719C184.049 74.719 184.306 74.9698 184.306 75.2802Z" fill="#D8E9FD"/>
<path d="M217.114 146.457H209.164C207.648 146.457 206.425 145.227 206.425 143.717V135.764C206.425 134.247 207.654 133.023 209.164 133.023H217.114C218.63 133.023 219.854 134.253 219.854 135.764V143.717C219.854 145.233 218.63 146.457 217.114 146.457Z" fill="#F7891B"/>
<path d="M216.201 146.457H208.251C206.735 146.457 205.512 145.227 205.512 143.717V135.764C205.512 134.247 206.741 133.023 208.251 133.023H216.201C217.717 133.023 218.941 134.253 218.941 135.764V143.717C218.941 145.233 217.717 146.457 216.201 146.457Z" fill="#FFAE0B"/>
<path d="M212.429 135.286C210.716 135.173 209.29 136.528 209.29 138.218C209.29 138.767 209.439 139.281 209.701 139.716C210.089 140.373 210.489 141.018 210.859 141.687L212.25 144.201L214.375 140.367C214.5 140.14 214.631 139.925 214.763 139.705C215.031 139.251 215.18 138.713 215.163 138.146C215.133 136.642 213.933 135.382 212.429 135.286ZM212.226 139.107C211.54 139.107 210.985 138.552 210.985 137.866C210.985 137.179 211.54 136.624 212.226 136.624C212.912 136.624 213.468 137.179 213.468 137.866C213.468 138.552 212.912 139.107 212.226 139.107Z" fill="white"/>
<path d="M217.114 126.229H209.164C207.648 126.229 206.425 124.999 206.425 123.488V115.535C206.425 114.018 207.654 112.794 209.164 112.794H217.114C218.63 112.794 219.854 114.024 219.854 115.535V123.488C219.854 125.005 218.63 126.229 217.114 126.229Z" fill="#00B3E3"/>
<path d="M216.201 126.229H208.251C206.735 126.229 205.512 124.999 205.512 123.488V115.535C205.512 114.018 206.741 112.794 208.251 112.794H216.201C217.717 112.794 218.941 114.024 218.941 115.535V123.488C218.941 125.005 217.717 126.229 216.201 126.229Z" fill="#7EE8D4"/>
<path d="M215.258 120.103C215.186 120.204 215.109 120.3 215.031 120.389C215.013 120.413 214.995 120.431 214.978 120.455C214.47 121.016 213.676 121.542 212.859 122.091C212.823 122.115 212.793 122.139 212.757 122.163C212.578 122.282 212.393 122.407 212.214 122.533C211.158 121.792 210.036 121.118 209.409 120.377C209.063 119.971 208.711 119.434 208.717 118.717C208.723 118.186 208.86 117.732 209.254 117.344C209.612 116.992 210.06 116.95 210.471 116.956C210.483 116.956 210.501 116.956 210.513 116.956C210.567 116.962 210.615 116.962 210.668 116.968C211.062 117.01 211.39 117.135 211.85 117.607L212.22 118.049L212.59 117.607C212.817 117.35 213.074 117.171 213.36 117.07C213.533 117.01 213.724 116.974 213.927 116.968C213.939 116.968 213.957 116.968 213.969 116.968C214.381 116.968 214.828 117.022 215.186 117.362C215.586 117.744 215.712 118.204 215.718 118.735C215.736 119.291 215.521 119.738 215.258 120.103Z" fill="white"/>
<path d="M219.173 166.041H207.111C206.735 166.041 206.425 165.737 206.425 165.355V153.288C206.425 152.912 206.729 152.601 207.111 152.601H219.173C219.549 152.601 219.86 152.906 219.86 153.288V165.355C219.854 165.737 219.549 166.041 219.173 166.041Z" fill="#0092C4"/>
<path d="M218.26 166.041H206.198C205.822 166.041 205.512 165.737 205.512 165.355V153.288C205.512 152.912 205.816 152.601 206.198 152.601H218.26C218.636 152.601 218.947 152.906 218.947 153.288V165.355C218.941 165.737 218.636 166.041 218.26 166.041Z" fill="#00BAD9"/>
<path d="M212.226 154.912C209.791 154.912 207.815 156.894 207.815 159.324C207.815 161.761 209.797 163.737 212.226 163.737C214.661 163.737 216.637 161.755 216.637 159.324C216.637 156.888 214.661 154.912 212.226 154.912ZM212.405 160.955V159.408H214.399C214.387 159.957 214.309 160.477 214.166 160.955H212.405ZM213.653 162.716C213.975 162.304 214.231 161.832 214.416 161.307H215.759C215.192 162.316 214.237 163.026 213.115 163.283C213.312 163.11 213.491 162.925 213.653 162.716ZM214.04 161.307C213.873 161.743 213.653 162.137 213.384 162.483C212.96 163.026 212.536 163.301 212.405 163.379V161.307H214.04ZM212.405 157.151V155.27C212.459 155.27 212.513 155.276 212.56 155.282C212.781 155.467 213.473 156.112 213.945 157.151H212.405ZM214.333 157.151C214.178 156.769 213.975 156.405 213.736 156.064C213.563 155.82 213.378 155.587 213.175 155.378C214.19 155.623 215.079 156.261 215.646 157.151H214.333ZM212.405 159.05V157.503H214.088C214.273 157.999 214.375 158.524 214.393 159.05H212.405ZM214.751 159.05C214.733 158.524 214.637 158.005 214.464 157.503H215.849C216.094 157.987 216.237 158.507 216.273 159.05H214.751ZM216.285 159.408C216.273 159.945 216.159 160.465 215.944 160.955H214.536C214.673 160.471 214.745 159.951 214.757 159.408H216.285ZM209.964 160.955H208.514C208.299 160.465 208.185 159.945 208.173 159.408H209.743C209.749 159.951 209.827 160.471 209.964 160.955ZM210.549 157.151C210.686 156.847 210.853 156.554 211.044 156.279C211.414 155.742 211.784 155.408 211.94 155.276C211.975 155.276 212.017 155.27 212.053 155.27V157.151H210.549ZM212.047 157.503V159.05H210.095C210.113 158.524 210.221 158.005 210.4 157.503H212.047ZM208.8 157.151C209.379 156.244 210.286 155.605 211.325 155.366C211.122 155.581 210.931 155.814 210.758 156.064C210.519 156.405 210.322 156.769 210.161 157.151H208.8ZM212.047 159.408V160.955H210.328C210.185 160.477 210.107 159.957 210.095 159.408H212.047ZM208.179 159.05C208.215 158.507 208.359 157.987 208.603 157.503H210.03C209.863 158.005 209.767 158.524 209.743 159.05H208.179ZM210.071 161.307C210.256 161.826 210.513 162.304 210.835 162.716C211.003 162.931 211.188 163.122 211.379 163.295C210.251 163.056 209.254 162.322 208.681 161.307H210.071ZM212.047 161.307V163.349C211.778 163.182 210.943 162.579 210.453 161.307H212.047Z" fill="white"/>
<path d="M217.114 186.432H209.164C207.648 186.432 206.425 185.202 206.425 183.691V175.738C206.425 174.221 207.654 172.997 209.164 172.997H217.114C218.63 172.997 219.854 174.227 219.854 175.738V183.691C219.854 185.202 218.63 186.432 217.114 186.432Z" fill="#0071CE"/>
<path d="M216.201 186.432H208.251C206.735 186.432 205.512 185.202 205.512 183.691V175.738C205.512 174.221 206.741 172.997 208.251 172.997H216.201C217.717 172.997 218.941 174.227 218.941 175.738V183.691C218.941 185.202 217.717 186.432 216.201 186.432Z" fill="#0071CE"/>
<path d="M215.658 177.177C215.634 177.087 215.616 176.998 215.592 176.914C215.515 176.604 215.366 176.329 215.157 176.09C215.007 175.917 214.834 175.768 214.637 175.66C214.369 175.505 214.064 175.571 213.861 175.809C213.503 176.239 213.151 176.669 212.799 177.099C212.584 177.368 212.62 177.726 212.889 177.965C213.08 178.132 213.283 178.293 213.479 178.454C213.503 178.472 213.533 178.49 213.557 178.502C213.086 179.768 212.286 180.747 211.14 181.458C211.003 181.344 210.853 181.219 210.71 181.1C210.633 181.04 210.561 180.974 210.483 180.914C210.251 180.735 209.988 180.717 209.743 180.879C209.666 180.926 209.606 181.004 209.546 181.07C209.224 181.458 208.908 181.852 208.585 182.234C208.484 182.359 208.418 182.491 208.394 182.652C208.4 182.712 208.406 182.765 208.412 182.825C208.466 182.921 208.508 183.04 208.585 183.112C208.776 183.297 208.979 183.464 209.23 183.577C209.516 183.709 209.821 183.786 210.137 183.763C210.346 183.745 210.555 183.703 210.758 183.643C211.277 183.5 211.749 183.249 212.196 182.95C212.638 182.652 213.038 182.306 213.408 181.924C213.903 181.404 214.345 180.843 214.751 180.252C215.067 179.78 215.342 179.29 215.515 178.753C215.604 178.484 215.664 178.204 215.682 177.917C215.688 177.804 215.694 177.684 215.7 177.571C215.682 177.439 215.67 177.308 215.658 177.177Z" fill="white"/>
<path d="M58.9983 133.322H14.0857V165.48H58.9983V133.322Z" fill="#7EE8D4"/>
<g opacity="0.2">
<path opacity="0.2" d="M40.0962 155.479C45.0242 155.479 49.019 151.483 49.019 146.553C49.019 141.623 45.0242 137.627 40.0962 137.627C35.1683 137.627 31.1734 141.623 31.1734 146.553C31.1734 151.483 35.1683 155.479 40.0962 155.479Z" fill="white"/>
</g>
<path d="M58.9982 156.966L56.8198 153.288L49.586 141.102L35.1185 165.474H58.9982V156.966Z" fill="#0D0A3E"/>
<path d="M32.1224 165.474H14.0857L23.104 150.942L32.1224 136.403L41.1407 150.942L50.159 165.474H32.1224Z" fill="#3C3C6A"/>
<path d="M26.2793 145.831L32.1224 150.207L37.9715 145.831L32.1224 136.403L26.2793 145.831Z" fill="white"/>
<path d="M44.662 149.401L49.586 153.288L54.5099 149.401L49.586 141.102L44.662 149.401Z" fill="white"/>
<path d="M117.358 40.6198L122.317 38.5898H165.983C166.687 38.5898 167.26 38.0166 167.26 37.3061V28.5231C167.26 27.8186 166.687 27.2454 165.983 27.2454H119.727C119.023 27.2454 118.45 27.8186 118.45 28.5231V34.9894L116.958 40.2616C116.886 40.5004 117.131 40.7154 117.358 40.6198Z" fill="#00BAD9"/>
<path d="M157.74 36.2135C157.669 36.1598 157.639 36.0702 157.663 35.9866L157.669 35.9568C157.675 35.9329 157.681 35.921 157.687 35.903L157.812 35.5567C158.033 34.9358 158.259 34.3148 158.48 33.6879C157.973 33.3356 157.46 32.9774 156.952 32.6251L156.6 32.3803C156.588 32.3743 156.576 32.3624 156.564 32.3504L156.552 32.3385C156.487 32.2907 156.457 32.2131 156.469 32.1355C156.481 32.0579 156.541 31.9922 156.618 31.9743C156.684 31.9564 156.738 31.9564 156.773 31.9564L157.209 31.9623C157.794 31.9743 158.379 31.9862 158.97 31.9982C159.202 31.3772 159.441 30.7503 159.68 30.1293L159.817 29.7651C159.823 29.7472 159.829 29.7353 159.835 29.7173L159.847 29.6935C159.883 29.6158 159.96 29.5621 160.044 29.5681C160.128 29.5741 160.205 29.6278 160.229 29.7114L160.378 30.195C160.557 30.7801 160.742 31.3653 160.921 31.9564C161.518 31.9683 162.121 31.9803 162.718 31.9982L163.267 32.0101C163.303 32.0101 163.333 32.0101 163.368 32.0101H163.41C163.482 32.0101 163.548 32.0519 163.583 32.1116C163.619 32.1713 163.619 32.2489 163.589 32.3146C163.553 32.3743 163.512 32.4102 163.482 32.434L163.13 32.6848C162.587 33.0789 162.049 33.467 161.506 33.861C161.685 34.4342 161.864 35.0074 162.038 35.5866L162.133 35.8911C162.139 35.909 162.145 35.9269 162.145 35.9448L162.151 35.9687C162.175 36.0523 162.139 36.1419 162.067 36.1896C161.996 36.2374 161.906 36.2374 161.835 36.1896L161.811 36.1717C161.793 36.1598 161.781 36.1478 161.763 36.1419L161.518 35.9627C160.993 35.5866 160.462 35.2104 159.937 34.8343C159.411 35.1985 158.88 35.5627 158.355 35.9269L158.063 36.1299C158.045 36.1419 158.027 36.1538 158.009 36.1658L157.973 36.1896C157.937 36.2135 157.901 36.2255 157.86 36.2255C157.818 36.2493 157.776 36.2374 157.74 36.2135Z" fill="white"/>
<path d="M149.146 36.2135C149.074 36.1598 149.044 36.0702 149.068 35.9866L149.074 35.9568C149.08 35.9329 149.086 35.921 149.092 35.903L149.217 35.5567C149.438 34.9358 149.665 34.3148 149.886 33.6879C149.378 33.3356 148.865 32.9774 148.358 32.6251L148.006 32.3803C147.994 32.3743 147.982 32.3624 147.97 32.3504L147.958 32.3385C147.892 32.2907 147.862 32.2131 147.874 32.1355C147.886 32.0579 147.946 31.9922 148.023 31.9743C148.089 31.9564 148.143 31.9564 148.179 31.9564L148.614 31.9623C149.199 31.9743 149.784 31.9862 150.375 31.9982C150.608 31.3772 150.847 30.7503 151.085 30.1293L151.223 29.7651C151.229 29.7472 151.235 29.7353 151.24 29.7173L151.252 29.6935C151.288 29.6158 151.366 29.5621 151.449 29.5681C151.533 29.5741 151.611 29.6278 151.634 29.7114L151.784 30.195C151.963 30.7801 152.148 31.3653 152.327 31.9564C152.924 31.9683 153.526 31.9803 154.123 31.9982L154.672 32.0101C154.708 32.0101 154.738 32.0101 154.774 32.0101H154.816C154.887 32.0101 154.953 32.0519 154.989 32.1116C155.024 32.1713 155.024 32.2489 154.995 32.3146C154.959 32.3743 154.917 32.4102 154.887 32.434L154.535 32.6848C153.992 33.0789 153.455 33.467 152.912 33.861C153.091 34.4342 153.27 35.0074 153.443 35.5866L153.538 35.8911C153.544 35.909 153.55 35.9269 153.55 35.9448L153.556 35.9687C153.58 36.0523 153.544 36.1419 153.473 36.1896C153.401 36.2374 153.312 36.2374 153.24 36.1896L153.216 36.1717C153.198 36.1598 153.186 36.1478 153.168 36.1419L152.924 35.9627C152.398 35.5866 151.867 35.2104 151.342 34.8343C150.817 35.1985 150.286 35.5627 149.76 35.9269L149.468 36.1299C149.45 36.1419 149.432 36.1538 149.414 36.1658L149.378 36.1896C149.343 36.2135 149.307 36.2255 149.265 36.2255C149.223 36.2493 149.181 36.2374 149.146 36.2135Z" fill="white"/>
<path d="M140.551 36.2135C140.479 36.1598 140.45 36.0702 140.473 35.9866L140.479 35.9568C140.485 35.9329 140.491 35.921 140.497 35.903L140.623 35.5567C140.844 34.9358 141.07 34.3148 141.291 33.6879C140.784 33.3356 140.271 32.9774 139.763 32.6251L139.411 32.3803C139.399 32.3743 139.387 32.3624 139.375 32.3504L139.363 32.3385C139.298 32.2907 139.268 32.2131 139.28 32.1355C139.292 32.0579 139.351 31.9922 139.429 31.9743C139.495 31.9564 139.548 31.9564 139.584 31.9564L140.02 31.9623C140.605 31.9743 141.19 31.9862 141.781 31.9982C142.013 31.3772 142.252 30.7503 142.491 30.1293L142.628 29.7651C142.634 29.7472 142.64 29.7353 142.646 29.7173L142.658 29.6935C142.694 29.6158 142.771 29.5621 142.855 29.5681C142.938 29.5741 143.016 29.6278 143.04 29.7114L143.189 30.195C143.368 30.7801 143.553 31.3653 143.732 31.9564C144.329 31.9683 144.932 31.9803 145.529 31.9982L146.078 32.0101C146.114 32.0101 146.144 32.0101 146.179 32.0101H146.221C146.293 32.0101 146.358 32.0519 146.394 32.1116C146.43 32.1713 146.43 32.2489 146.4 32.3146C146.364 32.3743 146.323 32.4102 146.293 32.434L145.941 32.6848C145.397 33.0789 144.86 33.467 144.317 33.861C144.496 34.4342 144.675 35.0074 144.848 35.5866L144.944 35.8911C144.95 35.909 144.956 35.9269 144.956 35.9448L144.962 35.9687C144.986 36.0523 144.95 36.1419 144.878 36.1896C144.807 36.2374 144.717 36.2374 144.645 36.1896L144.622 36.1717C144.604 36.1598 144.592 36.1478 144.574 36.1419L144.329 35.9627C143.804 35.5866 143.273 35.2104 142.747 34.8343C142.222 35.1985 141.691 35.5627 141.166 35.9269L140.873 36.1299C140.855 36.1419 140.838 36.1538 140.82 36.1658L140.784 36.1896C140.748 36.2135 140.712 36.2255 140.67 36.2255C140.629 36.2493 140.587 36.2374 140.551 36.2135Z" fill="white"/>
<path d="M131.956 36.2135C131.885 36.1598 131.855 36.0702 131.879 35.9866L131.885 35.9568C131.891 35.9329 131.897 35.921 131.903 35.903L132.028 35.5567C132.249 34.9358 132.476 34.3148 132.697 33.6879C132.189 33.3356 131.676 32.9774 131.169 32.6251L130.816 32.3803C130.805 32.3743 130.793 32.3624 130.781 32.3504L130.769 32.3385C130.703 32.2907 130.673 32.2131 130.685 32.1355C130.697 32.0579 130.757 31.9922 130.834 31.9743C130.9 31.9564 130.954 31.9564 130.99 31.9564L131.425 31.9623C132.01 31.9743 132.595 31.9862 133.186 31.9982C133.419 31.3772 133.657 30.7503 133.896 30.1293L134.033 29.7651C134.039 29.7472 134.045 29.7353 134.051 29.7173L134.063 29.6935C134.099 29.6158 134.177 29.5621 134.26 29.5681C134.344 29.5741 134.421 29.6278 134.445 29.7114L134.594 30.195C134.774 30.7801 134.959 31.3653 135.138 31.9564C135.734 31.9683 136.337 31.9803 136.934 31.9982L137.483 32.0101C137.519 32.0101 137.549 32.0101 137.585 32.0101H137.626C137.698 32.0101 137.764 32.0519 137.8 32.1116C137.835 32.1713 137.835 32.2489 137.806 32.3146C137.77 32.3743 137.728 32.4102 137.698 32.434L137.346 32.6848C136.803 33.0789 136.266 33.467 135.723 33.861C135.902 34.4342 136.081 35.0074 136.254 35.5866L136.349 35.8911C136.355 35.909 136.361 35.9269 136.361 35.9448L136.367 35.9687C136.391 36.0523 136.355 36.1419 136.284 36.1896C136.212 36.2374 136.122 36.2374 136.051 36.1896L136.027 36.1717C136.009 36.1598 135.997 36.1478 135.979 36.1419L135.734 35.9627C135.209 35.5866 134.678 35.2104 134.153 34.8343C133.628 35.1985 133.096 35.5627 132.571 35.9269L132.279 36.1299C132.261 36.1419 132.243 36.1538 132.225 36.1658L132.189 36.1896C132.153 36.2135 132.118 36.2255 132.076 36.2255C132.034 36.2493 131.992 36.2374 131.956 36.2135Z" fill="#0092C4"/>
<path d="M123.362 36.2135C123.29 36.1598 123.26 36.0702 123.284 35.9866L123.29 35.9568C123.296 35.9329 123.302 35.921 123.308 35.903L123.434 35.5567C123.654 34.9358 123.881 34.3148 124.102 33.6879C123.595 33.3356 123.081 32.9774 122.574 32.6251L122.222 32.3803C122.21 32.3743 122.198 32.3624 122.186 32.3504L122.174 32.3385C122.109 32.2907 122.079 32.2131 122.091 32.1355C122.103 32.0579 122.162 31.9922 122.24 31.9743C122.306 31.9564 122.359 31.9564 122.395 31.9564L122.831 31.9623C123.416 31.9743 124.001 31.9862 124.591 31.9982C124.824 31.3772 125.063 30.7503 125.302 30.1293L125.439 29.7651C125.445 29.7472 125.451 29.7353 125.457 29.7173L125.469 29.6935C125.505 29.6158 125.582 29.5621 125.666 29.5681C125.749 29.5741 125.827 29.6278 125.851 29.7114L126 30.195C126.179 30.7801 126.364 31.3653 126.543 31.9564C127.14 31.9683 127.743 31.9803 128.34 31.9982L128.889 32.0101C128.925 32.0101 128.954 32.0101 128.99 32.0101H129.032C129.104 32.0101 129.169 32.0519 129.205 32.1116C129.241 32.1713 129.241 32.2489 129.211 32.3146C129.175 32.3743 129.133 32.4102 129.104 32.434L128.751 32.6848C128.208 33.0789 127.671 33.467 127.128 33.861C127.307 34.4342 127.486 35.0074 127.659 35.5866L127.755 35.8911C127.761 35.909 127.767 35.9269 127.767 35.9448L127.773 35.9687C127.796 36.0523 127.761 36.1419 127.689 36.1896C127.617 36.2374 127.528 36.2374 127.456 36.1896L127.432 36.1717C127.415 36.1598 127.403 36.1478 127.385 36.1419L127.14 35.9627C126.615 35.5866 126.084 35.2104 125.558 34.8343C125.033 35.1985 124.502 35.5627 123.977 35.9269L123.684 36.1299C123.666 36.1419 123.648 36.1538 123.631 36.1658L123.595 36.1896C123.559 36.2135 123.523 36.2255 123.481 36.2255C123.44 36.2493 123.398 36.2374 123.362 36.2135Z" fill="#0092C4"/>
<path d="M118.945 50.9851H53.5848V98.2794C53.5848 99.7602 54.7845 100.966 56.2706 100.966H116.265C117.746 100.966 118.951 99.7661 118.951 98.2794V50.9851H118.945Z" fill="white"/>
<path d="M118.945 49.8267V55.4511H53.6385V49.8267C53.6385 48.3161 54.8621 47.0921 56.3721 47.0921H116.206C117.722 47.0861 118.945 48.3101 118.945 49.8267Z" fill="#0071CE"/>
<path d="M106.22 52.3285C107.028 52.3285 107.683 51.6736 107.683 50.8657C107.683 50.0578 107.028 49.4028 106.22 49.4028C105.413 49.4028 104.758 50.0578 104.758 50.8657C104.758 51.6736 105.413 52.3285 106.22 52.3285Z" fill="#FFAE0B"/>
<path d="M110.953 52.3285C111.761 52.3285 112.416 51.6736 112.416 50.8657C112.416 50.0578 111.761 49.4028 110.953 49.4028C110.146 49.4028 109.491 50.0578 109.491 50.8657C109.491 51.6736 110.146 52.3285 110.953 52.3285Z" fill="#00BAD9"/>
<path d="M115.489 52.3285C116.297 52.3285 116.952 51.6736 116.952 50.8657C116.952 50.0578 116.297 49.4028 115.489 49.4028C114.682 49.4028 114.027 50.0578 114.027 50.8657C114.027 51.6736 114.682 52.3285 115.489 52.3285Z" fill="#7EE8D4"/>
<path d="M98.7659 61.5471H95.2147V65.0997H98.7659V61.5471Z" fill="#FFAE0B"/>
<path d="M98.7659 67.8762H95.2147V71.4288H98.7659V67.8762Z" fill="#0071CE"/>
<path d="M114.009 68.6523H102.222C101.613 68.6523 101.123 69.1001 101.123 69.6554C101.123 70.2107 101.613 70.6585 102.222 70.6585H114.009C114.618 70.6585 115.107 70.2107 115.107 69.6554C115.107 69.1001 114.618 68.6523 114.009 68.6523Z" fill="#D8E9FD"/>
<path d="M114.009 62.3232H102.222C101.613 62.3232 101.123 62.771 101.123 63.3263C101.123 63.8816 101.613 64.3294 102.222 64.3294H114.009C114.618 64.3294 115.107 63.8816 115.107 63.3263C115.107 62.771 114.618 62.3232 114.009 62.3232Z" fill="#D8E9FD"/>
<path d="M95.2685 89.287C95.2685 89.8423 95.7161 90.2901 96.2712 90.2901H114.009C114.564 90.2901 115.012 89.8423 115.012 89.287C115.012 88.7317 114.564 88.2839 114.009 88.2839H96.2712C95.7161 88.2899 95.2685 88.7377 95.2685 89.287Z" fill="#D8E9FD"/>
<path d="M95.2506 85.269C95.2506 85.8242 95.6982 86.272 96.2533 86.272H113.992C114.547 86.272 114.994 85.8242 114.994 85.269C114.994 84.7137 114.547 84.2659 113.992 84.2659H96.2533C95.6982 84.2659 95.2506 84.7137 95.2506 85.269Z" fill="#D8E9FD"/>
<path d="M95.2326 81.2504C95.2326 81.8057 95.6802 82.2535 96.2353 82.2535H113.974C114.529 82.2535 114.976 81.8057 114.976 81.2504C114.976 80.6951 114.529 80.2473 113.974 80.2473H96.2353C95.6802 80.2473 95.2326 80.6951 95.2326 81.2504Z" fill="#D8E9FD"/>
<path d="M95.2147 77.2262C95.2147 77.7815 95.6624 78.2293 96.2174 78.2293H113.956C114.511 78.2293 114.958 77.7815 114.958 77.2262C114.958 76.6709 114.511 76.2231 113.956 76.2231H96.2174C95.6624 76.2291 95.2147 76.6769 95.2147 77.2262Z" fill="#D8E9FD"/>
<path d="M87.7362 77.0593C87.7362 84.3675 81.8155 90.2845 74.5161 90.2845C67.2107 90.2845 61.29 84.3615 61.29 77.0593C61.29 75.2502 61.6541 73.5187 62.3166 71.9483L74.5161 77.0593L73.8894 63.846C74.0924 63.8341 74.3072 63.8281 74.5161 63.8281C81.8155 63.8341 87.7362 69.7571 87.7362 77.0593Z" fill="#0071CE"/>
<path d="M72.6898 61.7622C68.7387 61.9473 65.2412 63.8639 62.9433 66.7717C62.2032 67.7091 61.5885 68.748 61.117 69.8645L73.3165 74.9755L72.6898 61.7622Z" fill="#FFAE0B"/>
<path d="M239.12 172.884L238.947 174.884L238.648 178.246L238.595 178.89L238.344 181.756L238.069 184.873L238.057 185.016L237.747 188.587L237.473 191.769L237.126 195.716H226.168L226.085 194.808L225.751 190.975L225.548 188.658L225.219 184.873L225.213 184.807L225.01 182.503L224.7 178.89L224.676 178.634L224.479 176.335L224.175 172.884H239.12Z" fill="#7EE8D4"/>
<path d="M238.595 178.89L238.344 181.756L238.069 184.873H225.219L225.213 184.807L225.01 182.503L224.7 178.89H238.595Z" fill="white"/>
<path d="M239.89 169.964H223.411V172.884H239.89V169.964Z" fill="#00B3E3"/>
<path d="M238.642 169.964H224.652V168.37C224.652 167.88 225.046 167.486 225.536 167.486H237.765C238.254 167.486 238.648 167.88 238.648 168.37V169.964H238.642Z" fill="#7EE8D4"/>
<path d="M255.664 175.708C255.664 175.708 255.253 176.114 254.405 176.174C254.148 176.198 253.856 176.18 253.516 176.114C253.158 176.048 252.746 175.923 252.298 175.708C252.298 175.708 252.495 167.367 249.123 161.623C245.751 155.879 241.286 147.944 244.862 143.872C248.431 139.8 254.184 145.46 256.07 154.984C257.944 164.513 255.664 175.708 255.664 175.708Z" fill="#00BAD9"/>
<path d="M254.405 176.174C254.149 176.198 253.856 176.18 253.516 176.114C254.596 161.307 247.882 149.873 247.81 149.753C247.685 149.544 247.75 149.27 247.959 149.138C248.168 149.013 248.443 149.085 248.574 149.294C248.646 149.413 255.509 161.08 254.405 176.174Z" fill="#0092C4"/>
<path d="M267.225 162.25C259.335 175.01 259.884 177.959 259.884 177.959L258.846 177.774L257.962 177.619L256.709 177.398C256.011 171.738 260.356 147.819 268.097 147.819C275.987 147.819 269.917 157.903 267.225 162.25Z" fill="#00BAD9"/>
<path d="M266.933 154.906C266.861 155.031 260.254 166.818 258.852 177.768L257.968 177.613C259.407 166.483 266.079 154.59 266.151 154.464C266.27 154.249 266.545 154.178 266.76 154.297C266.975 154.422 267.052 154.691 266.933 154.906Z" fill="#0092C4"/>
<path d="M249.893 177.47L249.923 177.464C249.917 177.482 249.893 177.47 249.893 177.47Z" fill="#00BAD9"/>
<path d="M252.221 176.843L251.314 177.087L250.442 177.32L249.923 177.458C249.953 177.344 249.559 176.371 244.008 168.949C241.716 165.88 235.605 157.641 241.209 156.255C246.354 154.99 252.37 172.568 252.221 176.843Z" fill="#00BAD9"/>
<path d="M251.313 177.081L250.442 177.314C248.843 170.167 242.343 161.396 242.277 161.301C242.134 161.104 242.176 160.823 242.367 160.674C242.564 160.531 242.844 160.566 242.993 160.763C243.28 161.157 249.666 169.773 251.313 177.081Z" fill="#0092C4"/>
<path d="M263.215 174.944V195.716H245.572V174.944C245.572 174.61 245.84 174.335 246.181 174.335H262.612C262.94 174.335 263.215 174.61 263.215 174.944Z" fill="#7EE8D4"/>
<path d="M263.215 176.263H245.572V176.771H263.215V176.263Z" fill="#00B3E3"/>
<path d="M263.215 179.147H245.572V179.655H263.215V179.147Z" fill="#00B3E3"/>
<path d="M263.215 190.784H245.572V191.292H263.215V190.784Z" fill="#00B3E3"/>
<path d="M263.215 193.668H245.572V194.176H263.215V193.668Z" fill="#00B3E3"/>
<path d="M34.7962 181.983H35.6199V180.753H4.40489C3.37235 180.753 2.42934 181.171 1.7549 181.852C1.08047 182.527 0.656708 183.464 0.656708 184.503C0.656708 186.575 2.33384 188.253 4.40489 188.253H35.6199V187.184H34.7962V181.983Z" fill="#7EE8D4"/>
<path d="M35.0111 181.983V187.178H6.3685C4.97188 187.178 3.83788 186.014 3.83788 184.581C3.83788 183.864 4.12436 183.213 4.57796 182.742C5.03753 182.27 5.67019 181.983 6.3685 181.983H35.0111Z" fill="white"/>
<path d="M35.011 183.297V184.091H7.10855C6.89368 184.091 6.71463 183.912 6.71463 183.697C6.71463 183.482 6.89368 183.303 7.10855 183.303H35.011V183.297Z" fill="#D8E9FD"/>
<path d="M35.011 185.255V186.049H7.10855C6.89368 186.049 6.71463 185.87 6.71463 185.655C6.71463 185.44 6.89368 185.261 7.10855 185.261H35.011V185.255Z" fill="#D8E9FD"/>
<path d="M37.4582 189.483H38.2818V188.253H7.06683C6.03429 188.253 5.09128 188.671 4.41684 189.351C3.74241 190.026 3.31865 190.963 3.31865 192.002C3.31865 194.074 4.99578 195.752 7.06683 195.752H38.2818V194.683H37.4582V189.483Z" fill="#0071CE"/>
<path d="M37.673 189.483V194.677H9.03045C7.63384 194.677 6.49983 193.513 6.49983 192.08C6.49983 191.363 6.78632 190.713 7.23992 190.241C7.69949 189.769 8.33214 189.483 9.03045 189.483H37.673Z" fill="white"/>
<path d="M37.673 190.796V191.59H9.77049C9.55563 191.59 9.37657 191.411 9.37657 191.196C9.37657 190.981 9.55563 190.802 9.77049 190.802H37.673V190.796Z" fill="#D8E9FD"/>
<path d="M37.673 192.755V193.549H9.77049C9.55563 193.549 9.37657 193.37 9.37657 193.155C9.37657 192.94 9.55563 192.761 9.77049 192.761H37.673V192.755Z" fill="#D8E9FD"/>
</g>
<defs>
<clipPath id="clip0">
<rect width="272" height="178" fill="white" transform="translate(0.00012207 21)"/>
</clipPath>
</defs>
</svg>
