<svg width="268" height="260" viewBox="0 0 268 260" fill="none" xmlns="http://www.w3.org/2000/svg">
<path d="M3.32312 179.051C2.98962 177.456 2.4124 173.436 1.56583 167.012C0.732075 160.578 0.821864 152.973 1.82236 144.231C2.83569 135.478 5.25998 126.002 9.06958 115.823C12.892 105.635 19.2413 95.7968 28.1432 86.3206C37.0323 76.8337 48.9998 68.3466 64.0202 60.8379C79.0405 53.3399 98.127 47.9051 121.28 44.555C139.904 41.8535 157.169 41.2899 173.062 42.8852C188.967 44.4805 203.141 48.3625 215.596 54.5523C228.064 60.7422 238.582 69.4527 247.176 80.7157C255.77 91.968 261.876 106.145 265.48 123.247C268.494 137.562 268.802 151.963 266.416 166.459C264.018 180.934 258.412 194.345 249.6 206.682C240.801 219.03 228.256 229.655 211.966 238.578C195.689 247.491 175.473 253.702 151.307 257.201C109.53 263.253 76.0518 259.488 50.8854 245.938C25.7189 232.346 9.86485 210.065 3.32312 179.051Z" fill="#C8DBFB"/>
<g style="mix-blend-mode:multiply">
<path d="M233.85 197.712C247.083 197.712 257.811 192.607 257.811 186.31C257.811 180.013 247.083 174.908 233.85 174.908C220.616 174.908 209.888 180.013 209.888 186.31C209.888 192.607 220.616 197.712 233.85 197.712Z" fill="#E0E0E0"/>
</g>
<g style="mix-blend-mode:multiply">
<path d="M41.1 210.258C54.3333 210.258 65.061 205.153 65.061 198.855C65.061 192.558 54.3333 187.453 41.1 187.453C27.8667 187.453 17.139 192.558 17.139 198.855C17.139 205.153 27.8667 210.258 41.1 210.258Z" fill="#E0E0E0"/>
</g>
<path d="M130.217 243.766L69.5584 208.795C69.1668 208.57 68.8465 208.019 68.8465 207.569V206.644C68.8465 206.194 69.1668 205.643 69.5584 205.418L143.524 162.783C143.915 162.558 144.55 162.558 144.942 162.783L205.606 197.754C205.998 197.979 206.318 198.53 206.318 198.98V199.904C206.318 200.354 205.998 200.905 205.606 201.13L131.641 243.766C131.244 243.991 130.609 243.991 130.217 243.766Z" fill="#EBEBEB"/>
<path d="M205.6 198.571L131.635 241.207C131.243 241.432 130.609 241.432 130.217 241.207L69.5521 206.236C69.1606 206.011 69.1606 205.643 69.5521 205.418L143.517 162.783C143.909 162.558 144.544 162.558 144.935 162.783L205.6 197.754C205.992 197.979 205.992 198.346 205.6 198.571Z" fill="#FAFAFA"/>
<path d="M205.6 198.571L131.635 241.207C131.243 241.432 130.609 241.432 130.217 241.207L69.5521 206.236C69.1606 206.011 69.1606 205.643 69.5521 205.418L143.517 162.783C143.909 162.558 144.544 162.558 144.935 162.783L205.6 197.754C205.992 197.979 205.992 198.346 205.6 198.571Z" fill="#FAFAFA"/>
<path d="M130.928 241.621V243.937C130.673 243.937 130.418 243.878 130.217 243.765L69.5577 208.795C69.1661 208.57 68.8458 208.019 68.8458 207.568V206.65C68.8458 206.254 69.089 205.774 69.4271 205.519C69.172 205.744 69.2136 206.046 69.5577 206.242L130.222 241.213C130.276 241.248 130.341 241.272 130.406 241.29L130.928 241.621Z" fill="#E0E0E0"/>
<path d="M94.3617 202.706C94.3617 202.735 94.3498 202.765 94.338 202.794C94.3202 202.824 94.3024 202.854 94.2727 202.883L93.9405 203.025L86.0504 203.428C85.8309 203.44 85.5639 203.612 85.4453 203.825C85.3207 204.038 85.386 204.21 85.5936 204.222L93.0328 204.601L93.2049 204.743C93.1989 204.773 93.1871 204.797 93.1693 204.832C93.0981 204.951 92.9438 205.039 92.8311 205.033L85.3266 204.648C84.8995 204.625 84.7631 204.269 85.0181 203.831C85.2732 203.393 85.8249 203.031 86.2758 203.008L94.2312 202.599C94.3142 202.587 94.3617 202.635 94.3617 202.706Z" fill="#455A64"/>
<path d="M163.86 197.931C163.86 197.967 163.842 198.014 163.812 198.056C163.729 198.174 163.581 198.257 163.468 198.245C163.45 198.245 161.499 198.014 157.898 197.706C157.785 197.694 157.761 197.594 157.838 197.475C157.915 197.357 158.07 197.274 158.182 197.28C161.789 197.588 163.741 197.819 163.759 197.819C163.83 197.831 163.866 197.872 163.86 197.931Z" fill="#455A64"/>
<path d="M157.316 209.286C157.316 209.31 157.31 209.334 157.298 209.363C157.245 209.482 157.102 209.582 156.978 209.6C156.954 209.6 154.73 209.837 150.767 210.157C150.642 210.169 150.589 210.08 150.648 209.961C150.707 209.843 150.85 209.742 150.974 209.73C154.931 209.411 157.156 209.174 157.174 209.174C157.263 209.168 157.316 209.215 157.316 209.286Z" fill="#455A64"/>
<path d="M148.91 196.711C148.91 196.747 148.898 196.782 148.869 196.824C148.791 196.942 148.643 197.031 148.53 197.025C145.232 196.824 141.785 196.646 138.285 196.504C122.297 195.852 116.976 196.439 112.117 197.215C106.855 198.056 93.4538 202.925 92.303 203.807C92.4394 204.684 100.235 209.529 104.542 210.352C108.51 211.116 113.161 211.691 129.926 210.992C133.593 210.838 137.247 210.654 140.789 210.441C140.907 210.435 140.961 210.524 140.901 210.643C140.842 210.761 140.694 210.862 140.575 210.868C137.027 211.081 133.373 211.265 129.701 211.419C112.888 212.117 108.22 211.543 104.227 210.773C100.371 210.033 91.2411 204.891 91.864 203.807C92.4869 202.723 107.567 197.546 112.289 196.794C117.172 196.012 122.517 195.42 138.546 196.077C142.052 196.22 145.499 196.397 148.803 196.599C148.874 196.605 148.91 196.652 148.91 196.711Z" fill="#455A64"/>
<path d="M118.934 200.253C118.543 199.335 117.593 198.826 116.276 198.826C114.948 198.832 113.405 199.341 111.928 200.283C111.192 200.751 110.51 201.296 109.917 201.888C109.336 202.481 108.831 203.126 108.452 203.784C107.852 204.826 107.597 205.821 107.716 206.662C107.9 207.965 108.968 208.741 110.564 208.736C111.892 208.736 113.435 208.22 114.912 207.278C116.389 206.343 117.623 205.093 118.388 203.772C118.875 202.925 119.13 202.119 119.148 201.403C119.16 200.982 119.088 200.597 118.934 200.253ZM117.967 203.772C117.267 204.98 116.14 206.123 114.787 206.976C113.441 207.829 112.023 208.303 110.813 208.309C109.341 208.309 108.374 207.598 108.208 206.414C108.185 206.266 108.173 206.112 108.179 205.957C108.197 205.3 108.434 204.554 108.879 203.784C109.579 202.575 110.706 201.438 112.053 200.579C113.405 199.726 114.817 199.252 116.033 199.252C117.237 199.252 118.104 199.714 118.465 200.556C118.845 201.408 118.667 202.552 117.967 203.772Z" fill="#455A64"/>
<path d="M118.466 200.556C118.098 199.714 117.238 199.252 116.034 199.252C114.823 199.252 113.405 199.726 112.053 200.579C110.706 201.438 109.573 202.575 108.879 203.784C108.434 204.554 108.197 205.3 108.179 205.958C108.173 206.117 108.185 206.266 108.209 206.414C108.375 207.604 109.342 208.309 110.813 208.309C112.023 208.303 113.441 207.829 114.788 206.976C116.14 206.123 117.273 204.98 117.967 203.772C118.667 202.552 118.845 201.408 118.466 200.556ZM116.9 203.772C115.79 205.685 113.334 207.249 111.412 207.249C111.406 207.249 111.406 207.249 111.4 207.249C109.496 207.249 108.837 205.691 109.935 203.784C111.038 201.871 113.5 200.313 115.417 200.307C116.734 200.307 117.457 201.035 117.428 202.113C117.422 202.605 117.244 203.174 116.9 203.772Z" fill="#27DEBF"/>
<path d="M104.708 198.861C104.666 198.838 104.613 198.838 104.542 198.855C100.781 200.04 92.3684 202.937 91.8641 203.813C91.3599 204.684 96.438 207.563 98.8347 208.741C98.8762 208.765 98.9356 208.759 99.0068 208.735C99.072 208.712 99.1373 208.664 99.1907 208.611C102.127 205.401 103.996 202.161 104.749 198.986C104.749 198.974 104.755 198.962 104.755 198.95C104.749 198.909 104.737 198.879 104.708 198.861Z" fill="#455A64"/>
<path d="M104.216 199.329C103.468 202.279 101.73 205.282 99.0545 208.262C95.4179 206.455 92.3864 204.358 92.3093 203.807C93.0212 203.262 98.485 201.154 104.216 199.329Z" fill="#27DEBF"/>
<path d="M163.937 198.5C163.925 198.98 163.788 199.774 163.272 201.011C163.225 201.124 163.082 201.237 162.958 201.254C162.833 201.272 162.768 201.195 162.815 201.077C163.599 199.193 163.456 198.417 163.403 198.233C163.094 198.198 161.795 198.05 159.612 197.854C159.535 198.601 159.226 199.815 158.313 201.693C158.253 201.811 158.111 201.912 157.987 201.924C157.862 201.935 157.809 201.847 157.868 201.734C158.9 199.608 159.12 198.37 159.143 197.718C159.143 197.647 159.197 197.564 159.274 197.499C159.357 197.434 159.452 197.398 159.523 197.404C162.264 197.653 163.741 197.825 163.759 197.825C163.8 197.831 163.83 197.848 163.848 197.878C163.86 197.89 163.949 198.068 163.937 198.5Z" fill="#455A64"/>
<path d="M160.199 206.295C160.199 206.336 160.181 206.384 160.146 206.431C158.408 208.777 157.168 209.517 157.12 209.547C157.073 209.576 157.019 209.594 156.972 209.6C156.954 209.6 155.269 209.784 152.244 210.038C152.161 210.044 152.107 210.009 152.102 209.944C152.096 209.879 152.143 209.796 152.22 209.725C152.968 209.067 154.154 207.841 155.572 205.72C155.649 205.602 155.803 205.519 155.916 205.525C156.029 205.537 156.053 205.637 155.975 205.756C154.73 207.628 153.638 208.836 152.855 209.582C155.269 209.375 156.741 209.227 157.091 209.191C157.358 209.008 158.384 208.238 159.772 206.366C159.855 206.254 160.009 206.171 160.116 206.188C160.17 206.194 160.205 206.236 160.199 206.295Z" fill="#455A64"/>
<path d="M167.745 214.534L152.612 215.553L151.105 209.807C151.093 209.772 151.069 209.748 151.028 209.742C148.145 208.96 144.674 209.203 140.717 210.459C140.64 210.483 140.557 210.542 140.498 210.607C140.444 210.678 140.427 210.749 140.444 210.803L143.897 219.877C143.909 219.918 143.95 219.942 144.004 219.942L149.924 220.043C149.948 220.043 149.972 220.037 150.002 220.031L167.591 214.949C167.716 214.913 167.834 214.807 167.87 214.706C167.882 214.682 167.882 214.665 167.888 214.647C167.888 214.576 167.834 214.528 167.745 214.534ZM150.138 219.616L144.348 219.522L141.008 210.737C144.686 209.624 147.925 209.422 150.636 210.139L152.149 215.908C152.161 215.956 152.214 215.985 152.286 215.979L165.877 215.067L150.138 219.616Z" fill="#455A64"/>
<path d="M165.877 215.067L150.138 219.616L144.348 219.522L141.008 210.737C144.686 209.624 147.925 209.422 150.636 210.139L152.149 215.908C152.161 215.956 152.214 215.985 152.286 215.98L165.877 215.067Z" fill="#27DEBF"/>
<path d="M180.577 192.435L168.825 187.394C168.807 187.388 168.784 187.382 168.76 187.382L162.715 187.501C162.661 187.501 162.59 187.524 162.531 187.566L148.596 196.664C148.518 196.717 148.453 196.788 148.429 196.859C148.406 196.93 148.424 196.984 148.477 197.013C150.992 198.257 154.184 198.488 157.975 197.7C158.022 197.689 158.076 197.665 158.129 197.629L166.268 191.872L180.257 192.849C180.358 192.855 180.494 192.784 180.577 192.677C180.619 192.624 180.636 192.577 180.636 192.535C180.642 192.488 180.619 192.452 180.577 192.435ZM166.434 191.445C166.369 191.439 166.286 191.469 166.215 191.522L158.034 197.304C154.492 198.026 151.491 197.837 149.088 196.729L162.572 187.921L168.487 187.809L178.999 192.316L166.434 191.445Z" fill="#455A64"/>
<path d="M178.999 192.316L166.434 191.445C166.369 191.44 166.286 191.469 166.215 191.522L158.034 197.304C154.492 198.026 151.491 197.837 149.088 196.729L162.572 187.921L168.487 187.809L178.999 192.316Z" fill="#27DEBF"/>
<path d="M180.008 203.422L165.26 200.561C165.242 200.555 165.219 200.555 165.195 200.561L143.215 203.511C143.103 203.529 142.972 203.618 142.913 203.718C142.848 203.825 142.877 203.914 142.972 203.932L161.547 206.887H161.618L179.771 203.843C179.884 203.825 180.008 203.736 180.068 203.63C180.085 203.594 180.097 203.558 180.097 203.529C180.097 203.476 180.068 203.434 180.008 203.422ZM161.819 206.461L144.592 203.718L164.976 200.988L178.656 203.641L161.819 206.461Z" fill="#455A64"/>
<path d="M178.655 203.641L161.819 206.461L144.592 203.718L164.975 200.988L178.655 203.641Z" fill="#27DEBF"/>
<path d="M160.924 216.495C160.918 216.495 160.912 216.495 160.912 216.495L159.209 216.992L157.489 217.496L155.567 218.053C154.172 218.461 152.814 219.705 152.476 220.89C152.144 222.069 152.95 222.768 154.321 222.477L156.136 222.092C156.154 222.092 156.172 222.092 156.19 222.086L157.868 221.731C157.874 221.731 157.886 221.725 157.892 221.725L159.541 221.376C160.437 221.151 161.131 219.753 161.452 218.627C161.57 218.213 161.647 217.774 161.659 217.407C161.677 216.785 161.487 216.353 160.924 216.495ZM160.971 218.746C160.657 219.871 160.063 220.866 159.666 220.967L158.485 221.216L157.922 221.334L156.747 221.583L156.207 221.701L154.457 222.069C153.496 222.27 152.873 221.873 152.891 221.145C152.897 221.026 152.915 220.902 152.956 220.766C153.229 219.8 154.339 218.787 155.478 218.456L157.275 217.928L157.827 217.768L159.031 217.419L159.607 217.247L160.811 216.898C161.214 216.803 161.291 217.632 160.971 218.746Z" fill="#455A64"/>
<path d="M159.607 217.247C159.547 217.123 159.458 217.028 159.34 216.986C159.304 216.975 159.263 216.981 159.209 216.992L157.489 217.496C157.388 217.525 157.293 217.597 157.24 217.679C157.18 217.762 157.18 217.845 157.234 217.881C157.251 217.893 157.263 217.91 157.275 217.928C157.477 218.171 157.453 218.858 157.216 219.693C156.979 220.534 156.587 221.316 156.207 221.701C156.184 221.731 156.16 221.755 156.13 221.778C156.047 221.849 156.006 221.944 156.012 222.009C156.023 222.063 156.071 222.092 156.136 222.092C156.154 222.092 156.172 222.092 156.19 222.086L157.868 221.731C157.874 221.731 157.886 221.725 157.892 221.725C157.94 221.713 157.981 221.69 158.023 221.66C158.189 221.547 158.343 221.393 158.485 221.216C158.954 220.647 159.304 219.818 159.5 219.119C159.619 218.71 159.702 218.278 159.708 217.905C159.713 217.644 159.684 217.413 159.607 217.247ZM159.025 219.237C158.764 220.149 158.313 221.008 157.922 221.334L156.747 221.583C157.18 221.014 157.513 220.215 157.69 219.575C157.874 218.935 157.975 218.195 157.827 217.768L159.031 217.419C159.28 217.585 159.28 218.325 159.025 219.237Z" fill="#455A64"/>
<path d="M159.025 219.237C158.764 220.149 158.313 221.008 157.922 221.334L156.747 221.583C157.18 221.014 157.513 220.214 157.691 219.575C157.874 218.935 157.975 218.195 157.827 217.768L159.031 217.419C159.28 217.585 159.28 218.325 159.025 219.237Z" fill="#27DEBF"/>
<path d="M179.924 186.014L178.667 185.67L177.391 185.321L175.974 184.93C174.941 184.646 173.322 185.35 172.295 186.529C171.263 187.714 171.186 188.952 172.117 189.36L173.393 189.911L174.538 190.409L175.671 190.901C175.677 190.901 175.677 190.906 175.677 190.906C175.885 190.977 176.3 190.93 177.095 190.308C177.581 189.923 178.145 189.372 178.673 188.768C179.201 188.158 179.634 187.566 179.889 187.098C180.067 186.76 180.138 186.529 180.144 186.363C180.15 186.15 180.049 186.055 179.924 186.014ZM179.456 187.11C179.23 187.53 178.821 188.087 178.335 188.65C177.848 189.206 177.32 189.722 176.881 190.065C176.478 190.385 176.169 190.539 176.039 190.498L175.244 190.154L174.852 189.982L174.057 189.639H174.051L173.69 189.479L172.491 188.958C171.732 188.626 171.791 187.613 172.634 186.648C173.47 185.682 174.793 185.108 175.641 185.344L176.976 185.712L177.374 185.818L178.269 186.061L178.696 186.18L179.58 186.423C179.711 186.47 179.663 186.719 179.456 187.11Z" fill="#455A64"/>
<path d="M178.738 185.735C178.732 185.706 178.708 185.682 178.667 185.67L177.391 185.321C177.32 185.297 177.219 185.333 177.13 185.398C177.041 185.463 176.982 185.552 176.982 185.629C176.982 185.629 176.982 185.629 176.982 185.635C176.982 185.658 176.976 185.682 176.976 185.712C176.899 186.091 176.389 186.873 175.665 187.708C174.935 188.543 174.164 189.236 173.69 189.479C173.654 189.497 173.618 189.515 173.589 189.526C173.488 189.568 173.399 189.645 173.357 189.728C173.316 189.811 173.328 189.882 173.393 189.911L174.538 190.409C174.574 190.427 174.621 190.427 174.668 190.415C174.841 190.373 175.036 190.279 175.244 190.154C175.902 189.74 176.685 188.97 177.291 188.277C177.896 187.584 178.507 186.748 178.697 186.18C178.732 186.067 178.756 185.966 178.756 185.878C178.756 185.824 178.756 185.777 178.738 185.735ZM176.952 188.158C176.158 189.076 175.297 189.817 174.852 189.982L174.057 189.639C174.698 189.206 175.446 188.466 176.003 187.826C176.561 187.187 177.148 186.393 177.374 185.818L178.269 186.061C178.293 186.375 177.741 187.246 176.952 188.158Z" fill="#455A64"/>
<path d="M178.27 186.061C178.294 186.375 177.742 187.246 176.953 188.158C176.158 189.076 175.298 189.817 174.853 189.982L174.058 189.639C174.699 189.206 175.446 188.466 176.004 187.826C176.561 187.187 177.149 186.393 177.374 185.818L178.27 186.061Z" fill="#27DEBF"/>
<path d="M115.422 200.307C113.505 200.313 111.044 201.87 109.94 203.784C108.837 205.691 109.495 207.249 111.405 207.249C111.411 207.249 111.411 207.249 111.417 207.249C113.339 207.249 115.795 205.685 116.905 203.772C117.249 203.173 117.421 202.605 117.433 202.107C117.462 201.035 116.739 200.307 115.422 200.307ZM116.472 203.772C115.499 205.454 113.345 206.822 111.655 206.822C109.976 206.828 109.388 205.46 110.361 203.784C111.328 202.107 113.488 200.739 115.172 200.733C116.863 200.733 117.439 202.095 116.472 203.772Z" fill="#455A64"/>
<path d="M221.825 89.1803C219.345 92.4677 214.356 98.3614 211.876 101.471C210.577 103.1 209.836 105.126 209.865 107.211C209.889 108.757 210.31 110.048 211.823 109.39C212.914 108.917 213.614 108.348 215.21 106.772C216.646 105.357 224.957 94.8667 224.957 94.8667C224.957 94.8667 225.639 88.9908 227.787 88.3451C229.935 87.6936 227.01 85.9285 227.01 85.9285C226.108 86.0469 224.317 85.8692 221.825 89.1803Z" fill="#9A4A4D"/>
<path d="M191.44 167.794L175.932 185.469C175.481 185.984 174.633 185.635 174.68 184.953L176.229 161.367L191.44 167.794Z" fill="#FFA8A7"/>
<path d="M174.674 184.948C174.627 185.629 175.475 185.978 175.926 185.463L178.951 182.01C177.474 182.164 176.033 181.477 175.22 180.233L175 179.895L174.674 184.948Z" fill="#263238"/>
<path d="M214.166 69.7639L213.336 71.7719L212.321 74.1945L176.222 161.361C177.083 163.867 179.088 165.78 181.413 167.018C184.949 168.913 189.238 169.257 191.427 167.782L227.259 81.2609L229.181 76.623C227.769 79.561 212.79 72.7255 214.166 69.7639Z" fill="#FFE08C"/>
<path d="M210.969 77.405L209.118 81.8949C208.537 83.1802 210.969 85.1586 214.06 86.7697C218.153 88.9198 223.403 90.4125 224.175 88.7125L225.545 85.4014L226.014 84.2109C225.243 85.9108 219.992 84.4241 215.899 82.2739C212.945 80.728 210.578 78.8325 210.928 77.5531L210.934 77.5413C210.934 77.4939 210.945 77.4524 210.969 77.405Z" fill="#EBEBEB"/>
<path d="M210.518 78.5303C209.165 81.5097 224.21 88.3156 225.562 85.3362L227.431 80.8463C226.078 83.8257 211.034 77.0199 212.386 74.0405L210.518 78.5303Z" fill="#27DEBF"/>
<path d="M214.166 69.7639L212.321 74.1945C210.974 77.1087 225.432 83.8257 227.259 81.2609C227.294 81.2195 227.324 81.1602 227.354 81.101L229.175 76.623C227.769 79.561 212.79 72.7255 214.166 69.7639Z" fill="#EBEBEB"/>
<path opacity="0.1" d="M227.259 81.261L229.182 76.6231C228.547 77.9499 225.136 77.2747 221.719 75.8708L184.297 168.179L175.938 185.463L191.446 167.788L191.434 167.782L227.259 81.261Z" fill="black"/>
<path d="M221.98 50.9518L214.167 69.764C213.579 71.0316 215.976 73.004 219.031 74.6151C223.119 76.7771 228.375 78.3053 229.182 76.629C229.193 76.6231 229.193 76.6231 229.193 76.6113L236.704 58.5157C238.804 54.4406 231.561 49.311 226.358 49.0089C224.406 48.8786 222.763 49.4295 221.98 50.9518Z" fill="#FFA8A7"/>
<path d="M229.175 57.1533L221.712 75.8708C224.755 77.1206 227.775 77.7899 228.855 76.9844C228.949 76.9074 229.015 76.8304 229.068 76.7711C229.104 76.7237 229.145 76.6823 229.175 76.623L236.917 57.9707C235.932 60.2156 229.175 57.1533 229.175 57.1533Z" fill="#F28F8F"/>
<path d="M252.56 181.145L248.283 182.418L246.432 176.193L250.804 174.694L252.56 181.145Z" fill="#B16668"/>
<path d="M247.654 180.31L247.47 179.7C247.114 180.002 247.002 183.781 246.005 185.954C244.913 188.336 243.751 190.036 243.27 191.102C242.623 192.535 245.157 193.293 247.963 191.913C249.357 191.226 251.581 189.437 251.937 188.294C252.293 187.151 252.169 185.652 252.477 184.799C252.786 183.946 253.747 182.809 253.788 181.915C253.812 181.423 253.337 180.505 252.875 179.747C252.453 179.048 251.991 178.284 251.753 178.432C251.783 178.527 251.89 178.9 251.89 178.9C251.682 179.338 251 180.191 250.098 180.641C249.44 180.967 247.88 181.05 247.654 180.31Z" fill="#263238"/>
<path d="M241.96 110.155C244.54 113.46 245.003 116.872 244.439 126.539C243.876 136.199 243.698 144.285 243.84 144.824C243.982 145.369 247.02 149.248 248.005 152.778C248.989 156.309 251.641 176.347 251.641 176.347C251.641 176.347 250.14 178.551 246.777 178.551C246.777 178.551 236.009 149.278 235.286 147.104C234.562 144.93 229.97 122.037 229.97 122.037L230.67 109.112L241.96 110.155Z" fill="#37474F"/>
<path d="M230.729 81.6935H234.307C238.97 81.6935 242.749 77.9204 242.749 73.2647C242.749 67.6199 238.169 63.0471 232.515 63.0471C226.862 63.0471 222.282 67.6199 222.282 73.2647C222.288 77.9204 226.067 81.6935 230.729 81.6935Z" fill="#263238"/>
<path d="M225.376 172.952L220.915 172.893L220.829 179.384L225.29 179.443L225.376 172.952Z" fill="#B16668"/>
<path d="M222.252 121.267C222.643 116.806 223.598 109.077 223.598 109.077L235.024 108.407C236.875 111.286 236.068 116.078 235.564 120.402L229.032 145.949C229.163 147.169 230.29 149.763 229.032 156.338C227.626 163.683 225.538 174.209 225.538 174.209C225.538 174.209 222.281 175.849 220.673 174.066C220.673 174.066 219.807 150.196 220.412 143.84C221.077 136.963 221.985 124.323 222.252 121.267Z" fill="#37474F"/>
<path d="M220.864 177.182L220.87 176.542C220.442 176.72 219.208 180.298 217.607 182.081C215.851 184.029 214.243 185.309 213.46 186.186C212.416 187.358 214.605 188.839 217.696 188.353C219.232 188.111 221.89 187.062 222.572 186.079C223.248 185.09 223.581 183.627 224.132 182.904C224.684 182.181 225.942 181.382 226.244 180.541C226.41 180.079 226.232 179.06 226.019 178.195C225.823 177.407 225.61 176.537 225.337 176.608C225.337 176.702 225.331 177.093 225.331 177.093C225.004 177.449 224.097 178.059 223.1 178.225C222.37 178.343 220.858 177.958 220.864 177.182Z" fill="#263238"/>
<path d="M224.957 100.139C224.678 102.745 222.993 114.064 222.993 114.064C231.607 118.655 242.291 115.61 243.923 113.721C242.439 108.852 240.85 106.085 239.627 104.788L241.484 97.633C241.484 97.633 237.338 93.2142 241.033 86.2544L236.465 85.8813L229.756 85.6858C228.154 85.7746 227.009 85.9286 227.009 85.9286C226.202 87.2377 224.921 89.6129 223.871 92.2961C223.195 94.0257 222.477 96.555 224.957 100.139Z" fill="#4ED3F5"/>
<path d="M225.942 67.4954C224.862 68.1351 223.528 70.8479 223.658 76.5342C223.771 81.3558 225.337 82.5463 226.12 82.8899C226.903 83.2334 228.422 83.0261 229.893 82.7774V85.6738C229.893 85.6738 227.858 88.0372 227.983 89.364C228.113 90.6908 230.925 91.0047 232.83 89.7076C234.734 88.4104 236.342 85.8871 236.342 85.8871L236.306 79.2353C236.306 79.2353 237.172 80.0764 238.643 78.791C239.86 77.7307 240.269 75.9419 239.32 74.9824C238.377 74.0228 236.626 74.2834 235.956 75.6517C235.956 75.6517 233.607 75.7346 230.475 74.0228C227.354 72.305 226.15 69.3671 225.942 67.4954Z" fill="#B16668"/>
<path d="M229.892 82.7835C231.447 82.5821 234.638 81.664 235.137 80.4023C235.137 80.4023 234.971 81.1961 234.015 82.0135C233.06 82.8309 229.886 83.749 229.886 83.749V82.7835H229.892Z" fill="#9A4A4D"/>
<path d="M242.677 74.8461L244.848 73.2587C244.421 72.6308 243.584 72.4827 242.985 72.921C242.386 73.3594 242.25 74.2242 242.677 74.8461Z" fill="#263238"/>
<path d="M231.975 132.1L230.112 122.73C230.112 122.73 227.33 121.764 225.449 120.354C225.449 120.354 226.986 122.333 228.712 123.358L231.975 132.1Z" fill="#263238"/>
<path d="M241.461 81.7349C239.473 80.7339 239.752 78.8621 240.749 76.8778C241.751 74.8935 243.098 73.5608 245.08 74.5559C247.067 75.5569 247.862 77.9677 246.865 79.952C245.869 81.9363 243.448 82.73 241.461 81.7349Z" fill="#263238"/>
<path d="M209.51 111.363C210.506 111.618 211.473 111.541 212.844 112.009C214.054 112.423 214.564 112.577 215.751 112.5C217.044 112.423 220.419 110.824 223.415 109.011C226.951 106.873 230.617 102.976 231.952 101.086C234.663 97.2537 237.665 91.212 239.101 88.896C240.536 86.5859 241.029 86.2483 241.029 86.2483C242.903 86.3253 244.76 88.0371 243.52 92.6099C242.488 96.3948 239.717 101.293 236.306 105.41C234.651 107.406 231.738 110.368 227.206 113.134C224.038 115.065 221.256 116.024 217.738 117.203C216.777 117.523 216.148 117.997 214.386 118.826C213.68 119.158 212.909 119.549 212.138 119.655C211.153 119.792 210.15 119.815 209.166 119.667C207.926 119.478 206.716 119.004 205.749 118.204C205.215 117.766 204.758 117.227 204.485 116.593C204.212 115.959 204.129 115.237 204.331 114.573C204.372 114.437 204.426 114.307 204.532 114.212C204.716 114.04 204.995 114.04 205.25 114.046C206.662 114.094 208.175 114.354 209.575 114.259C210.761 114.176 211.586 113.951 211.414 113.785C211.242 113.62 210.554 113.714 209.599 113.306C208.691 112.915 208.032 111.991 208.288 111.499C208.549 111.007 208.513 111.108 209.51 111.363Z" fill="#B16668"/>
<path d="M202.96 96.8094C202.96 96.8094 204.87 95.8617 207.326 96.2645C208.512 96.46 208.518 100.417 204.698 101.672C202.212 102.484 200.717 102.129 199.916 104.172C199.916 104.172 198.309 103.959 198.67 101.672C199.038 99.386 200.035 97.307 201.702 95.3405C202.799 94.0492 202.871 92.9593 203.41 93.3266C204.016 93.7412 203.737 94.9436 203.737 94.9436L202.96 96.8094Z" fill="#B16668"/>
<path d="M48.9482 99.6942C51.5941 102.851 56.4171 108.875 58.8969 111.985C60.1961 113.614 60.9376 115.64 60.908 117.725C60.8842 119.271 60.463 120.562 58.9503 119.904C57.8587 119.43 57.1587 118.862 55.5629 117.286C54.1272 115.871 49.0372 109.764 49.0372 109.764C49.0372 109.764 45.1337 99.5105 42.9862 98.859C40.8386 98.2074 39.3496 98.3733 39.3496 98.3733C41.9421 97.4907 45.5905 95.6841 48.9482 99.6942Z" fill="#F28F8F"/>
<path d="M38.0682 96.3179C40.72 94.3277 45.2109 94.8489 47.6906 97.8461C49.5059 100.044 53.8366 105.404 53.8366 105.404C53.8366 105.404 52.5967 108.846 48.2601 110.392L38.0682 96.3179Z" fill="#00ADD9"/>
<path d="M88.8149 167.047C88.8208 167.047 81.3697 140.079 70.8575 114.68C60.4402 89.4943 44.3634 63.9532 41.676 60.0913C41.6641 60.0735 41.6522 60.0616 41.6463 60.0439C41.6344 60.0261 41.6166 60.0024 41.6048 59.9846H41.5988C41.2251 59.493 40.6437 59.1672 39.9734 59.1672C38.8462 59.1672 37.9326 60.0794 37.9326 61.2048C37.9326 61.3648 37.9563 61.5188 37.9919 61.6668H37.986C37.986 61.6668 45.1346 96.5429 55.3917 121.308C65.6488 146.073 79.6849 170.856 79.6849 170.856C80.0231 171.425 80.7053 171.833 81.696 171.964C83.9147 172.254 86.8216 171.051 88.1861 169.28C88.809 168.475 88.9988 167.693 88.8149 167.047Z" fill="#009790"/>
<path opacity="0.1" d="M37.9324 61.2114C37.9324 61.3713 37.9562 61.5253 37.9918 61.6734H37.9858C37.9858 61.6734 45.1344 96.5495 55.3915 121.315C62.2909 137.971 70.8988 154.639 75.799 163.767L81.1738 160.367C81.1738 160.367 38.3833 59.9497 39.9791 59.1797C38.846 59.1738 37.9324 60.086 37.9324 61.2114Z" fill="black"/>
<path d="M79.6849 170.862C78.8247 175.215 77.3298 180.801 80.0527 188.069C83.1435 196.314 92.4811 198.589 97.0076 198.594C103.278 198.606 107.247 196.273 107.247 196.273C107.247 196.273 104.002 195.029 102.661 190.349C102.382 189.372 102.258 188.33 102.169 187.234C101.884 183.449 101.753 179.32 98.4373 174.736C94.2015 168.884 88.8149 167.053 88.8149 167.053L79.6849 170.862Z" fill="#EBEBEB"/>
<path d="M102.667 190.349C102.388 189.372 102.264 188.329 102.181 187.234C102.175 187.263 101.047 192.174 98.277 191.889C95.5007 191.599 94.7176 188.655 91.0336 188.655C86.5546 188.655 85.0062 192.411 81.168 190.391C85.0122 196.841 92.9379 198.594 97.0075 198.606C103.278 198.618 107.247 196.284 107.247 196.284C107.247 196.284 104.008 195.029 102.667 190.349Z" fill="#27DEBF"/>
<path opacity="0.1" d="M90.9569 191.931C83.7075 186.908 85.0719 173.545 85.2855 171.389L79.6912 170.862C78.831 175.215 77.3361 180.801 80.059 188.069C83.1498 196.314 92.4874 198.589 97.0139 198.594C103.284 198.606 107.253 196.273 107.253 196.273C107.253 196.273 99.4462 197.807 90.9569 191.931Z" fill="black"/>
<path d="M79.6854 170.862C80.0235 171.431 80.7057 171.833 81.6964 171.964C83.9152 172.254 86.822 171.051 88.1865 169.28C88.8035 168.475 88.9992 167.687 88.8213 167.047C87.7712 163.304 86.5551 159.246 85.2322 154.982C85.4932 155.805 85.2559 156.824 84.4491 157.872C82.7287 160.111 79.0565 161.628 76.2564 161.26C74.9157 161.083 74.014 160.508 73.6284 159.714C75.9479 164.056 78.1311 168.114 79.6854 170.862Z" fill="#455A64"/>
<path d="M81.168 160.36C79.5781 161.094 77.7865 161.462 76.2559 161.26C74.9152 161.083 74.0135 160.508 73.6279 159.714C75.9415 164.056 78.1246 168.114 79.6849 170.868C80.023 171.436 80.7052 171.839 81.696 171.97C82.8112 172.118 84.0986 171.887 85.2791 171.395L85.3444 171.282L81.168 160.36Z" fill="#37474F"/>
<path d="M43.293 86.912C46.7526 86.0964 48.8949 82.6349 48.078 79.1806C47.2611 75.7264 43.7943 73.5874 40.3347 74.403C36.8751 75.2187 34.7328 78.6801 35.5497 82.1344C36.3666 85.5886 39.8334 87.7277 43.293 86.912Z" fill="#263238"/>
<path d="M26.4075 197.116H30.9399V189.369H26.4075V197.116Z" fill="#FFA8A7"/>
<path d="M42.1204 188.952L46.6527 189.112L46.8782 180.914L42.3458 180.754L42.1204 188.952Z" fill="#FFA8A7"/>
<path d="M26.7019 127.96C26.7019 132.284 26.1443 158.471 26.1443 158.471C26.0375 159.715 24.8688 162.007 25.1239 166.781C25.468 173.267 26.0316 190.136 26.0316 190.136C26.0316 190.136 28.1554 192.239 31.1572 190.136C31.1572 190.136 35.2624 166.805 36.0751 160.378C36.7811 154.769 37.9854 139.522 37.9854 139.522L42.1855 157.464C42.1855 157.464 41.444 161.681 41.2838 164.66C41.1236 167.64 42.055 183.218 42.055 183.218C42.055 183.218 44.3568 184.805 46.9848 183.408C46.9848 183.408 50.6273 159.898 51.096 157.209C51.5647 154.52 47.9103 127.966 47.9103 127.966H26.7019V127.96Z" fill="#37474F"/>
<path d="M31.0559 96.697C29.0804 97.0465 27.5083 98.5392 27.0753 100.5C26.8617 101.471 26.7015 102.626 26.7015 103.935V112.802V127.96C29.8813 131.413 40.9571 133.018 47.898 127.96C47.898 127.96 47.7616 106.737 47.2395 103.254C46.3378 97.1946 43.4309 95.0385 40.5181 95.2636L33.5238 96.2646L31.0559 96.697Z" fill="#4ED3F5"/>
<path d="M30.6941 85.2295C30.6941 85.2295 31.7382 90.1221 32.1535 90.9217C32.5687 91.7273 33.4349 91.9524 33.4349 91.9524L33.3637 88.511L30.6941 85.2295Z" fill="#263238"/>
<path d="M31.9989 78.2225C31.9989 78.2225 30.8776 78.033 29.9996 78.9215C29.1394 79.7981 29.62 82.5406 30.6878 85.2238L32.6514 85.4489L31.9989 78.2225Z" fill="#263238"/>
<path d="M33.2451 85.4548C32.8535 85.6917 32.2899 84.9335 31.8035 84.4241C31.317 83.9147 29.7331 83.2217 28.9441 84.8862C28.1373 86.5802 29.6441 88.8251 30.8899 89.216C33.0434 89.8913 33.3637 88.5112 33.3637 88.5112L33.5298 96.2588C33.5298 96.2588 34.9358 99.7002 38.7503 100.216C42.5649 100.731 41.7818 97.5915 40.5241 96.0515L40.5182 93.694C40.5182 93.694 42.47 93.9902 43.4192 93.8421C45.0031 93.5992 45.9938 92.3494 46.4743 90.6436C47.2456 87.8952 47.5362 85.6799 46.8837 80.2779C46.1659 74.3605 39.2724 74.2954 35.5468 76.6351C31.8272 78.9866 33.2451 85.4548 33.2451 85.4548Z" fill="#FFA8A7"/>
<path d="M33.2449 86.1181C33.0491 86.124 32.2957 84.8742 31.8033 84.43C31.1211 83.814 31.9991 78.2224 31.9991 78.2224C31.9991 78.2224 31.3465 76.8364 32.6517 75.397C33.5831 74.3723 35.1373 74.2598 37.7951 73.8451C39.1892 73.626 41.3011 73.235 42.6893 72.9803C44.3504 72.6723 45.7267 72.3466 46.9013 73.3654C47.8149 74.1591 48.2065 75.557 47.7141 76.6587C47.6013 76.9193 47.4293 77.1503 47.2395 77.3635C46.9013 77.7367 46.5216 78.0329 46.0411 78.1869C46.0411 78.1869 45.3174 78.8266 42.7961 79.1346C40.2748 79.4426 36.3535 79.0754 35.8136 79.0043C35.084 78.9036 34.9297 79.6144 34.5322 81.5454C34.2 83.2335 33.9093 86.1063 33.2449 86.1181Z" fill="#263238"/>
<path d="M32.0048 78.6607L29.6259 77.3871C29.9641 76.706 30.7709 76.4394 31.4294 76.7889C32.0819 77.1384 32.343 77.9795 32.0048 78.6607Z" fill="#263238"/>
<path d="M40.5182 93.7C40.5182 93.7 36.9884 92.9892 35.7545 92.3317C34.9299 91.8934 34.2477 91.1352 34.046 90.6436C34.046 90.6436 34.2773 91.692 35.0129 92.6338C35.9147 93.7888 40.5182 94.6358 40.5182 94.6358V93.7Z" fill="#F28F8F"/>
<path d="M30.9378 194.881V194.235C31.3708 194.425 32.3794 198.263 34.1769 199.898C35.6066 201.201 37.5583 202.705 38.0507 204.157C38.5669 205.667 35.3337 206.502 33.9989 206.265C32.4446 205.993 29.7572 204.897 29.0809 203.89C28.4046 202.877 28.0902 201.385 27.5385 200.644C26.9927 199.904 25.7232 199.074 25.4266 198.216C25.2664 197.742 25.4562 196.711 25.6876 195.84C25.8952 195.041 26.1266 194.158 26.3995 194.235C26.3995 194.33 26.3995 194.727 26.3995 194.727C26.7258 195.088 27.6394 195.449 28.6657 195.491C29.336 195.515 30.9437 195.384 30.9378 194.881Z" fill="#263238"/>
<path d="M46.7002 187.714C46.9375 187.72 47.1273 188.051 47.6434 188.614C48.2723 189.289 49.2986 190.024 50.3071 190.527C52.0037 191.374 55.3022 192.683 56.7971 193.353C57.7285 193.773 57.687 194.899 56.72 195.538C55.753 196.178 53.4275 196.64 50.6333 196.018C49.1087 195.68 47.1273 194.277 45.8756 194.348C44.6179 194.425 42.2746 194.407 41.3491 193.767C40.4237 193.127 40.7915 191.771 41.0525 190.598C41.3373 189.319 41.7466 187.37 42.1678 187.453L42.1559 187.856C42.7017 188.679 45.4722 189.017 46.6705 188.407L46.7002 187.714Z" fill="#263238"/>
<path d="M37.979 139.516C37.979 139.516 41.6037 138.497 44.2911 135.903C44.2911 135.903 43.0749 138.178 39.4502 140.298L40.8088 151.866L37.979 139.516Z" fill="#263238"/>
<path d="M63.3527 122.641C62.3561 122.895 61.3891 122.818 60.0187 123.286C58.8085 123.701 58.2983 123.855 57.1118 123.778C55.8185 123.701 52.443 122.102 49.4471 120.289C45.9114 118.151 42.2452 114.253 40.9104 112.364C38.1993 108.532 35.1975 102.49 33.7618 100.174C32.3262 97.8638 30.9677 97.6209 29.3718 97.6861C27.4972 97.7631 26.2989 99.4808 27.9481 103.035C29.5973 106.595 33.1508 112.565 36.5619 116.682C38.2171 118.678 41.1299 121.64 45.6622 124.406C48.8302 126.337 51.6125 127.296 55.1304 128.475C56.0914 128.795 56.7203 129.269 58.4822 130.098C59.1881 130.43 59.9594 130.821 60.7306 130.927C61.7154 131.064 62.7179 131.087 63.7027 130.939C64.9426 130.75 66.1528 130.276 67.1198 129.476C67.6537 129.038 68.1105 128.499 68.3834 127.865C68.6563 127.231 68.7393 126.509 68.5376 125.845C68.4961 125.709 68.4427 125.579 68.3359 125.484C68.152 125.312 67.8732 125.312 67.6181 125.318C66.2062 125.365 64.6934 125.626 63.2934 125.531C62.1069 125.448 61.2823 125.223 61.4543 125.057C61.6264 124.892 62.3145 124.986 63.2696 124.578C64.1773 124.187 64.8358 123.263 64.5807 122.771C64.3078 122.285 64.3493 122.38 63.3527 122.641Z" fill="#FFA8A7"/>
<path d="M29.9769 97.0228C28.5294 97.0939 26.6666 97.9705 26.7022 100.429C26.7378 102.887 30.5168 110.024 33.4355 114.1C33.4355 114.1 37.9797 113.809 40.3705 110.386C40.3705 110.386 36.1229 103.639 34.9661 101.483C33.9338 99.558 32.0829 96.9221 29.9769 97.0228Z" fill="#00ADD9"/>
<path d="M67.6297 107.24C67.6297 107.24 65.9093 106.375 63.4532 106.778C62.2668 106.974 62.2608 110.93 66.0813 112.186C68.567 112.998 70.0619 112.642 70.8628 114.686C70.8628 114.686 72.4705 114.473 72.1086 112.186C71.7408 109.9 70.7442 107.821 69.0772 105.854C67.9797 104.563 67.9085 103.473 67.3686 103.846C66.7635 104.261 66.8466 105.534 66.8466 105.534L67.6297 107.24Z" fill="#FFA8A7"/>
<path d="M171.826 123.648L150.054 123.352L149.864 141.104C149.846 142.709 150.89 144.332 153.002 145.576C157.226 148.075 164.12 148.146 168.403 145.741C170.562 144.527 171.642 142.916 171.636 141.293L171.826 123.648Z" fill="#37474F"/>
<path d="M153.293 118.951C149.016 121.356 148.974 125.33 153.198 127.83C157.422 130.329 164.315 130.4 168.599 127.995C172.882 125.591 172.923 121.616 168.693 119.117C164.464 116.623 157.57 116.546 153.293 118.951Z" fill="#455A64"/>
<path d="M170.889 123.577C170.889 123.861 170.829 124.145 170.734 124.43C170.402 125.448 169.512 126.39 168.13 127.172C166.196 128.25 163.627 128.831 160.881 128.807C158.146 128.771 155.583 128.144 153.679 127.018C152.338 126.224 151.466 125.265 151.157 124.276C151.051 123.979 151.003 123.671 151.003 123.363C151.027 122.037 152 120.763 153.762 119.78C155.684 118.69 158.264 118.11 160.999 118.145C163.746 118.169 166.309 118.808 168.213 119.934C169.951 120.965 170.901 122.25 170.889 123.577Z" fill="#263238"/>
<path d="M170.735 124.43C170.403 125.448 169.513 126.39 168.13 127.172C166.196 128.25 163.628 128.831 160.881 128.807C158.146 128.771 155.583 128.144 153.679 127.018C152.338 126.224 151.466 125.265 151.158 124.276C151.49 123.257 152.38 122.309 153.762 121.545C155.684 120.455 158.265 119.875 161 119.898C163.746 119.934 166.309 120.574 168.213 121.699C169.548 122.487 170.414 123.435 170.735 124.43Z" fill="#27DEBF"/>
<path d="M165.579 130.3C166.054 130.033 166.439 130.258 166.433 130.803C166.427 131.348 166.036 132.011 165.555 132.278C165.075 132.544 164.695 132.319 164.701 131.774C164.713 131.23 165.105 130.566 165.579 130.3Z" fill="#263238"/>
<path d="M150.013 126.473C148.814 128.825 146.435 134.434 149.526 136.715C149.657 136.809 149.775 136.892 149.906 136.975L149.894 138.112C149.585 137.923 149.265 137.71 148.957 137.485C144.335 134.067 149.55 125.289 149.775 124.921C149.835 124.815 149.93 124.756 150.036 124.72L150.013 126.473Z" fill="#E0E0E0"/>
<path d="M165.983 131.514C165.852 131.787 162.489 138.207 156.954 139.499C156.313 139.653 155.684 139.724 155.044 139.724C153.323 139.724 151.609 139.191 149.888 138.113L149.9 136.975C152.184 138.563 154.486 139.102 156.734 138.586C161.842 137.39 165.111 131.135 165.135 131.076C165.253 130.839 165.55 130.756 165.775 130.874C166.019 130.993 166.113 131.277 165.983 131.514Z" fill="#E0E0E0"/>
<g clip-path="url(#clip0)">
<path d="M139.47 95.2712H93.4765L98.6203 137.697H98.6423C98.8778 140.151 100.598 142.571 103.841 144.443C110.831 148.489 122.17 148.489 129.16 144.443C132.403 142.566 134.123 140.151 134.359 137.697H134.375L139.47 95.2712Z" fill="#37474F"/>
<path d="M100.22 85.8518C109.209 80.6536 123.781 80.6536 132.77 85.8518C141.76 91.0501 141.76 99.4814 132.77 104.685C123.781 109.883 109.209 109.883 100.22 104.685C91.2306 99.4869 91.2306 91.0501 100.22 85.8518Z" fill="#455A64"/>
<path d="M116.495 105.909C110.809 105.909 105.501 104.652 101.556 102.369C98.0724 100.354 96.1496 97.829 96.1496 95.2711C96.1496 92.7131 98.0669 90.1881 101.556 88.1736C105.506 85.8901 110.809 84.6331 116.495 84.6331C122.181 84.6331 127.489 85.8901 131.433 88.1736C134.917 90.1881 136.84 92.7131 136.84 95.2711C136.84 97.8345 134.917 100.354 131.433 102.369C127.484 104.652 122.181 105.909 116.495 105.909Z" fill="#263238"/>
<path d="M128.591 51.7695L128.328 53.4437L128.005 55.4637L119.903 106.974C120.906 106.897 121.864 106.81 122.735 106.667C123.458 106.552 124.165 106.381 124.861 106.189C126.329 105.574 127.715 104.811 129.084 103.961C130.01 103.39 130.887 102.742 131.807 102.171C132.207 101.919 133.149 101.606 133.407 101.227C133.543 101.029 133.691 100.854 133.85 100.706L140.55 58.104L141.158 54.2452C140.632 56.7153 128.093 54.2616 128.591 51.7695Z" fill="#27DEBF"/>
<path d="M127.572 58.1316L126.991 61.8697C126.789 62.9456 128.98 64.005 131.604 64.6582C135.082 65.542 139.312 65.7176 139.585 64.2905L140.018 61.5349L140.155 60.5468C139.881 61.974 135.652 61.7984 132.174 60.9146C129.665 60.2834 127.539 59.2733 127.567 58.2414V58.2304C127.556 58.2084 127.561 58.17 127.572 58.1316Z" fill="#EBEBEB"/>
<path d="M127.435 59.0702C126.953 61.5732 139.536 63.9939 140.018 61.4909L140.61 57.7528C140.128 60.2558 127.55 57.8351 128.027 55.332L127.435 59.0702Z" fill="#27DEBF"/>
<path d="M128.591 51.7695L128.005 55.4583C127.518 57.9119 139.64 60.3656 140.555 58.0931C140.577 58.0546 140.588 58.0052 140.599 57.9558L141.163 54.2342C140.632 56.7153 128.093 54.2616 128.591 51.7695Z" fill="#EBEBEB"/>
<path opacity="0.1" d="M135.395 55.0246L127.966 104.63C128.339 104.416 128.712 104.191 129.084 103.961C130.01 103.39 130.886 102.742 131.807 102.171C132.206 101.919 133.149 101.606 133.406 101.227C133.543 101.029 133.691 100.854 133.85 100.706L140.549 58.104L141.158 54.2451C140.922 55.3594 138.227 55.4692 135.395 55.0246Z" fill="black"/>
<path d="M131.073 36.109L128.592 51.7696C128.378 52.8345 130.542 53.8939 133.138 54.5581C136.617 55.4529 140.857 55.656 141.158 54.2397C141.164 54.2343 141.164 54.2343 141.164 54.2233L143.547 39.161C144.39 35.6918 137.997 33.1284 134.015 33.842C132.53 34.1 131.385 34.8136 131.073 36.109Z" fill="#FFA8A7"/>
<path d="M111.927 106.305L103.82 48.2402C103.14 49.7168 100.286 50.9903 97.1912 51.3252C94.5289 51.6106 92.0857 51.0946 91.1489 50.123L98.1827 100.492C102.609 103.28 107.156 105.196 111.927 106.305Z" fill="#27DEBF"/>
<path d="M96.3366 35.8181C94.496 36.2957 93.8441 35.9114 93.8441 35.9114L91.1489 50.1229C92.617 52.2363 96.1942 52.6754 99.2235 51.7916L99.1304 51.0835L96.3366 35.8181Z" fill="#FFA8A7"/>
<path d="M103.825 48.2402H103.814V48.2512C103.82 48.2512 103.825 48.2457 103.825 48.2402L97.2188 35.0881L103.825 48.2402Z" fill="#FAFAFA"/>
<path d="M97.219 35.0879L95.6194 31.8987L97.219 35.0879Z" fill="#E0E0E0"/>
<path d="M94.5785 32.047L93.8445 35.9114C93.8445 35.9114 94.469 36.3505 96.337 35.8181L95.6194 31.8988C95.4714 31.6024 95.1373 31.531 94.8853 31.6463C94.7374 31.7122 94.6114 31.8494 94.5785 32.047Z" fill="#455A64"/>
<path opacity="0.1" d="M111.927 106.305L103.82 48.251C103.108 49.9746 101.295 51.1877 99.2293 51.7915L106.192 104.532C108.071 105.256 109.977 105.854 111.927 106.305Z" fill="black"/>
<path d="M103.82 48.2512V48.2402H103.831L97.2188 35.0881C97.0161 35.4175 96.6984 35.6865 96.3369 35.8182L99.1361 51.0836L99.2292 51.7917C101.294 51.1934 103.108 49.9748 103.82 48.2512Z" fill="#F28F8F"/>
<path d="M96.337 35.818C96.7917 35.7137 97.1807 35.28 97.219 35.0879L95.614 31.8987L96.337 35.818Z" fill="#37474F"/>
<path d="M117.076 107.172C118.09 107.09 119.087 107.029 120.04 106.958C121.004 99.2839 121.826 90.4464 121.837 82.5804C121.853 63.5713 119.404 43.5303 119.404 43.5303C119.339 43.0693 119.004 42.6137 118.391 42.2569C117.021 41.4609 114.797 41.4609 113.428 42.2569C112.803 42.6191 112.469 43.0802 112.409 43.5523H112.403C112.403 43.5523 109.96 63.242 109.933 82.7286C109.922 90.6934 110.525 98.9491 111.286 106.14C113.181 106.617 115.11 106.947 117.076 107.172Z" fill="#27DEBF"/>
<path opacity="0.1" d="M115.751 107.018C116.184 107.078 116.622 107.122 117.06 107.172C118.079 107.089 119.082 107.029 120.035 106.958C120.999 99.2838 121.821 90.4463 121.832 82.5803C121.843 69.796 120.741 56.5451 120.018 49.239L115.587 50.013C115.587 50.0075 115.904 84.0678 115.751 107.018Z" fill="black"/>
<path d="M115.893 41.6696C116.506 40.5223 119.853 34.2921 118.78 29.2201C118.166 29.1981 117.52 29.0938 116.813 28.8029C114.414 27.8039 114.699 25.6631 112.962 24.719C111.237 23.7803 109.171 26.6841 109.155 26.7115C108.317 29.2695 107.281 32.0086 108.202 35.9114C109.38 40.8956 112.403 43.5578 112.403 43.5578L119.404 43.5359C119.837 42.8827 120.325 42.1855 120.801 41.428C120.319 42.1855 119.837 42.8827 119.404 43.5359L115.893 41.6696Z" fill="#F0F0F0"/>
<path d="M123.721 30.3398C122.236 28.5448 120.708 29.2859 118.779 29.2145C119.859 34.2865 116.506 40.5167 115.893 41.664L119.404 43.5303C119.837 42.8771 120.324 42.18 120.801 41.4224C120.921 41.2303 121.042 41.0382 121.162 40.8406C121.403 40.4454 121.639 40.0282 121.864 39.5945C122.203 38.9413 122.521 38.2442 122.8 37.4812C122.987 36.9762 123.156 36.4438 123.299 35.8839C123.584 34.7641 123.775 33.529 123.825 32.1567C123.847 31.5309 123.808 30.9271 123.721 30.3398Z" fill="#E0E0E0"/>
<path d="M123.721 30.3124C123.677 29.9995 123.617 29.6921 123.54 29.3957C123.534 29.3627 123.523 29.3353 123.518 29.3078C123.463 29.0828 123.392 28.8632 123.321 28.6436C123.293 28.5613 123.266 28.4735 123.239 28.3911C123.217 28.3253 123.189 28.2649 123.162 28.199C123.118 28.0838 123.069 27.963 123.025 27.8477C122.965 27.7105 122.904 27.5733 122.844 27.436C122.696 27.1286 122.537 26.8267 122.368 26.5358C122.198 26.2449 122.017 25.9649 121.825 25.6905C121.633 25.4215 121.436 25.158 121.228 24.9055C119.798 23.1654 118.023 21.8865 116.566 21.118C116.435 21.0466 116.303 20.9808 116.177 20.9204C116.139 20.9039 116.106 20.8874 116.068 20.871C115.914 20.7996 115.761 20.7283 115.619 20.6679C114.594 20.2397 113.625 19.9488 112.748 19.7512C112.31 19.6524 111.894 19.5755 111.505 19.5206C111.116 19.4657 110.754 19.4273 110.425 19.3999C110.261 19.3889 110.102 19.3779 109.954 19.3724C109.801 19.3614 109.659 19.3614 109.527 19.356C109.27 19.356 109.045 19.356 108.864 19.3669C108.497 19.3834 108.295 19.4108 108.295 19.4108C108.295 19.4108 110.075 21.1015 109.68 24.5323C109.598 25.2458 109.401 25.9649 109.155 26.706C109.171 26.684 111.236 23.7747 112.962 24.7134C114.698 25.6575 114.408 27.7983 116.813 28.7973C117.514 29.0883 118.166 29.1926 118.779 29.2145C120.708 29.2859 122.236 28.5394 123.721 30.3398C123.721 30.3343 123.721 30.3233 123.721 30.3124Z" fill="#27DEBF"/>
<path opacity="0.1" d="M108.295 19.4108C108.295 19.4108 113.811 20.5197 117.755 26.673C118.259 27.4635 118.588 28.3253 118.779 29.22C120.708 29.2914 122.236 28.5448 123.721 30.3453C123.721 30.3343 123.715 30.3288 123.715 30.3178C123.671 30.005 123.611 29.6976 123.534 29.4012C123.529 29.3682 123.518 29.3408 123.512 29.3133C123.458 29.0883 123.386 28.8687 123.315 28.6491C123.288 28.5668 123.26 28.479 123.233 28.3966C123.211 28.3308 123.184 28.2704 123.156 28.2045C123.113 28.0892 123.063 27.9685 123.019 27.8532C122.959 27.716 122.899 27.5787 122.839 27.4415C122.691 27.1341 122.532 26.8322 122.362 26.5413C122.192 26.2504 122.011 25.9704 121.82 25.696C121.628 25.427 121.431 25.1635 121.223 24.911C119.793 23.1709 118.018 21.892 116.561 21.1235C116.429 21.0521 116.298 20.9862 116.172 20.9259C116.134 20.9094 116.101 20.8929 116.062 20.8765C115.909 20.8051 115.756 20.7337 115.613 20.6734C114.589 20.2452 113.619 19.9543 112.743 19.7567C112.304 19.6579 111.888 19.581 111.499 19.5261C111.11 19.4712 110.749 19.4328 110.42 19.4054C110.256 19.3944 110.097 19.3834 109.949 19.3779C109.801 19.3614 109.659 19.3614 109.527 19.356C109.27 19.356 109.045 19.356 108.864 19.3669C108.497 19.3834 108.295 19.4108 108.295 19.4108Z" fill="black"/>
<path d="M119.404 43.5302C119.338 43.0691 118.999 42.6135 118.391 42.2622C117.021 41.4663 114.797 41.4663 113.427 42.2622C112.803 42.6245 112.463 43.0856 112.409 43.5522C112.08 46.2913 111.773 49.2774 111.483 52.4282C111.538 51.8189 111.965 51.2151 112.776 50.7485C114.507 49.7495 117.311 49.7495 119.042 50.7485C119.87 51.2261 120.302 51.8463 120.335 52.4776C119.996 49.0084 119.672 45.7588 119.404 43.5302Z" fill="#455A64"/>
<path d="M115.585 50.0074C116.823 49.958 118.089 50.205 119.036 50.7484C119.863 51.226 120.296 51.8462 120.329 52.4775C119.995 49.0028 119.672 45.7532 119.398 43.5301C119.332 43.069 118.992 42.6134 118.384 42.2621C117.694 41.8614 116.796 41.6638 115.892 41.6693L115.815 41.7242L115.585 50.0074Z" fill="#37474F"/>
<path d="M136.666 95.2603C136.567 97.7523 134.661 100.195 131.27 102.16C127.32 104.444 122.017 105.701 116.331 105.701C110.645 105.701 105.337 104.444 101.393 102.16C97.9963 100.195 96.0899 97.7523 95.9968 95.2603H93.3181C93.4057 98.6032 95.6462 101.93 100.051 104.477C109.04 109.675 123.611 109.675 132.601 104.477C137.005 101.93 139.246 98.6032 139.333 95.2603H136.666Z" fill="#455A64"/>
</g>
<defs>
<clipPath id="clip0">
<rect width="52.4793" height="128.117" fill="white" transform="translate(91.1483 19.356)"/>
</clipPath>
</defs>
</svg>
