<svg width="285" height="229" viewBox="0 0 285 229" fill="none" xmlns="http://www.w3.org/2000/svg">
<path d="M2.43622 143.967C2.08648 142.291 1.48117 138.068 0.59337 131.32C-0.280976 124.561 -0.186815 116.573 0.862399 107.389C1.92507 98.1946 4.46739 88.2402 8.46248 77.5485C12.471 66.8455 19.1295 56.5113 28.4648 46.5569C37.7867 36.5914 50.3369 27.676 66.0886 19.7884C81.8402 11.9121 101.856 6.2031 126.136 2.68388C145.667 -0.153849 163.773 -0.745973 180.439 0.929849C197.119 2.60567 211.983 6.68351 225.045 13.1857C238.119 19.6879 249.15 28.8379 258.162 40.6692C267.175 52.4893 273.577 67.3818 277.357 85.3466C280.518 100.384 280.841 115.511 278.339 130.739C275.824 145.944 269.946 160.032 260.704 172.992C251.477 185.963 238.321 197.124 221.238 206.497C204.168 215.86 182.968 222.384 157.626 226.06C113.814 232.417 78.706 228.462 52.3143 214.229C25.9225 199.951 9.29647 176.545 2.43622 143.967Z" fill="#C8DBFB"/>
<g clip-path="url(#clip0)">
<path d="M98.7626 213C112.168 213 123.034 211.984 123.034 210.732C123.034 209.479 112.168 208.463 98.7626 208.463C85.3576 208.463 74.4907 209.479 74.4907 210.732C74.4907 211.984 85.3576 213 98.7626 213Z" fill="#C8DBFB"/>
<path d="M223.45 213C236.855 213 247.722 211.984 247.722 210.732C247.722 209.479 236.855 208.463 223.45 208.463C210.045 208.463 199.179 209.479 199.179 210.732C199.179 211.984 210.045 213 223.45 213Z" fill="#C8DBFB"/>
<path d="M274.732 50.9876C274.663 50.5666 274.588 50.1519 274.506 49.7498" stroke="#C8DBFB" stroke-linecap="round" stroke-linejoin="round"/>
<path d="M273.91 47.3117C269.583 32.5576 255.773 33.984 243.295 34.0091C229.862 34.0343 21.9214 34.4678 21.9214 34.4678C1.02183 34.5118 3.05024 64.6987 19.4094 64.661C28.8168 64.6421 32.3963 82.3181 16.1313 82.3496C6.37232 82.3684 6.05833 94.7473 12.6208 97.2293" stroke="#C8DBFB" stroke-linecap="round" stroke-linejoin="round" stroke-dasharray="3.99 3.99"/>
<path d="M13.8266 97.5498C14.2222 97.6189 14.643 97.6566 15.0826 97.6504" stroke="#C8DBFB" stroke-linecap="round" stroke-linejoin="round"/>
<path d="M17.6448 97.0849C17.9211 98.7249 16.8221 100.277 15.1831 100.56C13.544 100.836 11.9929 99.7366 11.7103 98.0965C11.4339 96.4565 12.5329 94.9044 14.172 94.6217C15.8111 94.3452 17.3685 95.4448 17.6448 97.0849Z" fill="#5193F4"/>
<path d="M277.69 52.3386C277.395 53.9724 275.825 55.0595 274.192 54.7578C272.56 54.4625 271.473 52.8916 271.775 51.2578C272.076 49.6241 273.64 48.537 275.272 48.8386C276.905 49.1402 277.985 50.7049 277.69 52.3386Z" fill="#5193F4"/>
<path d="M48.3034 75.1046C47.87 77.5489 47.2358 79.9367 46.4633 82.2931C44.7992 87.3766 42.5007 92.2716 40.1771 97.1037C38.9651 99.6298 34.0479 105.474 31.4104 106.586C31.7181 99.9942 31.7432 92.2967 30.977 85.6423C30.2423 79.2329 32.547 74.3756 30.0351 68.4313C29.7148 67.671 29.3819 66.9106 29.0491 66.1503C27.7994 63.3226 26.5623 60.4824 26.1729 57.4348C25.6705 53.5704 26.87 49.1655 30.2109 47.1547C32.6161 45.7095 35.7498 45.7849 38.3183 46.9222C40.8868 48.0596 42.9466 50.1395 44.5103 52.4707C48.8874 58.9806 49.6787 67.3882 48.3034 75.1046Z" fill="#5193F4"/>
<path d="M36.6164 53.7527C41.5336 60.7024 41.9606 68.7958 42.3877 77.2977C42.8147 85.7995 40.7737 94.4144 36.5725 101.817" stroke="#0B43A4" stroke-miterlimit="10" stroke-linecap="round" stroke-linejoin="round"/>
<path d="M36.4155 181.927C32.9678 178.88 29.4824 175.788 26.9328 171.955C24.716 168.618 23.2841 164.829 21.3499 161.317C20.1002 159.048 18.6182 156.855 17.896 154.367C17.1675 151.879 17.3433 148.925 19.1143 147.034C20.9606 145.054 24.1319 144.753 26.6376 145.771C29.1433 146.789 31.0587 148.9 32.5156 151.175C34.4561 154.197 35.7561 157.634 36.2962 161.185C36.786 164.402 36.6604 167.695 37.1628 170.912C37.6275 173.909 38.6386 176.787 39.9071 179.533C41.0563 182.021 43.9765 186.464 44.7175 189.015C42.6514 190.046 37.885 183.228 36.4155 181.927Z" fill="#00AD9F"/>
<path d="M24.3643 150.326C27.6424 151.759 28.9424 155.674 29.6269 159.186C30.4056 163.183 30.2297 167.512 32.0635 171.151C35.5174 178.006 40.0076 185.804 43.3485 188.135" stroke="#00AD9F" stroke-miterlimit="10" stroke-linecap="round" stroke-linejoin="round"/>
<path d="M19.4534 172.552C16.596 171.421 12.7716 170.956 10.9378 173.425C9.40552 175.493 10.1968 178.427 11.2581 180.771C12.1561 182.75 13.2928 184.767 15.1768 185.842C16.4642 186.577 17.9776 186.797 19.4534 186.973C23.5667 187.463 27.7052 187.702 31.85 187.689C36.6478 187.677 42.463 189.637 46.4382 192.635C41.3389 183.165 29.0805 176.36 19.4534 172.552Z" fill="#0056EC"/>
<path d="M14.4357 178.716C18.0781 178.873 21.7519 179.125 25.2435 180.162C28.8168 181.217 42.5635 187.532 44.7113 190.215" stroke="#0B43A4" stroke-miterlimit="10" stroke-linecap="round" stroke-linejoin="round"/>
<path d="M50.6521 153.104C46.9281 147.273 40.5602 143.201 33.7088 142.277C28.6472 141.598 23.4412 142.541 18.4423 141.492C13.1923 140.392 8.45725 137.005 5.7192 132.387C2.98116 127.768 2.26524 122 3.80383 116.853C4.97817 112.945 7.6597 109.237 11.5407 107.987C13.657 107.308 15.968 107.403 18.1283 107.918C20.1254 108.395 21.9779 109.231 23.6861 110.318C27.5922 112.794 30.751 116.602 33.1248 120.649C35.2788 124.325 40.5916 130.049 44.2089 133.775C46.3315 135.949 47.8701 137.439 47.8701 137.439C50.3443 140.524 49.1826 149.428 50.6521 153.104Z" fill="#52D2BC"/>
<path d="M10.404 119.291C22.5682 124.783 35.8314 131.984 44.4601 142.176" stroke="#00AD9F" stroke-miterlimit="10" stroke-linecap="round" stroke-linejoin="round"/>
<path opacity="0.2" d="M45.6281 140.807C45.6281 140.807 27.5043 126.103 23.6798 110.324C27.5859 112.8 30.7447 116.608 33.1185 120.655C35.2725 124.331 40.5854 130.055 44.2026 133.781C44.6296 135.755 45.1006 138.067 45.6281 140.807Z" fill="#5275A0"/>
<path opacity="0.2" d="M46.4634 82.2929C44.7992 87.3764 42.5007 92.2714 40.1771 97.1036C38.9651 99.6296 34.0479 105.473 31.4104 106.586C31.7181 99.9941 31.7432 92.2966 30.9771 85.6421C30.2423 79.2328 32.547 74.3755 30.0351 68.4311C29.7148 67.6708 29.382 66.9105 29.0491 66.1501C29.2815 66.2256 29.5076 66.3072 29.7274 66.4015C33.8595 68.1735 35.7686 72.5469 36.1203 76.7947C36.4155 80.301 35.7812 83.8136 35.3102 87.301C35.0904 88.9097 34.9146 90.556 35.26 92.1332C35.2662 92.152 35.2725 92.1646 35.2725 92.1835C35.7058 94.0623 38.4502 93.9555 38.8018 92.0515L39.9008 86.214C40.2274 84.4671 40.5853 82.6385 42.0172 81.4195C42.5824 80.9357 43.3108 80.634 44.0519 80.6592C45.2325 80.7032 45.9735 81.3944 46.4634 82.2929Z" fill="#5275A0"/>
<path d="M45.6281 137.118C42.7645 122.157 41.2573 119.851 42.5196 116.099C44.1272 111.317 43.2229 106.517 44.7364 101.703C46.2498 96.8963 47.2797 91.7248 46.0614 86.8298C45.6784 85.284 44.8934 83.6 43.0345 83.5309C42.2872 83.5058 41.565 83.8074 40.9998 84.2912C39.568 85.5103 39.21 87.3388 38.8835 89.0857L37.7908 94.9232C37.4328 96.8209 34.6948 96.934 34.2615 95.0489C34.2552 95.03 34.2552 95.0175 34.2489 94.9986C33.8972 93.4214 34.0793 91.7751 34.2929 90.1665C34.7639 86.6727 35.3981 83.1664 35.1092 79.6539C34.7576 75.4061 32.8485 71.0326 28.71 69.2669C27.2468 68.6385 25.5889 68.5003 24.044 68.8962C19.7297 70.0021 18.6119 74.2247 19.2462 77.8253C19.692 80.3639 20.8789 82.6952 21.9528 85.0327C24.5778 90.7446 22.6499 95.9852 23.0141 102.263C24.0189 119.599 45.6281 137.118 45.6281 137.118Z" fill="#7EE8D4"/>
<path d="M26.3739 73.4392C28.5028 84.0838 30.6568 94.8037 34.789 104.845C36.001 107.792 36.5913 111.663 43.606 119.668" stroke="#00AD9F" stroke-miterlimit="10" stroke-linecap="round" stroke-linejoin="round"/>
<path d="M109.426 76.1665C107.222 73.6467 105.187 71.083 103.045 68.6135C101.658 67.0111 100.226 65.4465 98.6684 63.9635C97.8959 63.2221 97.0984 62.5057 96.2569 61.8082C91.2832 57.6987 85.7317 54.2867 79.7972 51.7481C76.2176 50.2148 72.4371 48.9518 69.3976 46.5075C66.3582 44.0694 64.1727 40.0604 65.1838 36.2965C65.9186 33.5819 68.2233 31.4706 70.8671 30.5029C73.5047 29.5415 76.4312 29.6169 79.1755 30.2076C86.837 31.8602 93.2362 37.371 97.5882 43.8872C97.6636 44.0003 97.7452 44.1197 97.8206 44.239C101.011 49.1089 103.24 54.5254 105.181 60.0425C105.802 61.8145 106.393 63.5991 106.977 65.3774C107.856 68.0354 110.556 73.5336 109.426 76.1665Z" fill="#5193F4"/>
<path d="M74.3776 36.6042C82.7362 38.2003 88.6519 43.7362 94.8502 49.5675C101.048 55.3988 105.545 63.0209 107.649 71.2714" stroke="#0B43A4" stroke-miterlimit="10" stroke-linecap="round" stroke-linejoin="round"/>
<path opacity="0.2" d="M103.045 68.6134C102.976 69.4806 103.002 70.3477 103.165 71.2275C101.074 70.7499 99.6229 67.5012 98.6684 63.9635C97.7326 60.5263 97.2679 56.8064 97.1235 55.0909C96.8409 51.4715 97.0733 47.8019 97.8206 44.239C101.011 49.1089 103.24 54.5254 105.181 60.0425C104.515 62.0219 103.943 64.0264 103.473 66.0497C103.272 66.9106 103.115 67.7589 103.045 68.6134Z" fill="#5275A0"/>
<path d="M117.546 38.4203C116.836 41.5559 114.946 44.2641 113.275 47.0164C112.396 48.4616 111.574 49.9509 110.807 51.4589C108.352 56.2848 106.481 61.406 105.243 66.678C104.835 68.4061 104.609 70.1027 104.936 71.8558C100.816 70.9133 99.1708 59.1942 98.8944 55.713C98.3983 49.4419 99.4659 43.0137 102.047 37.2704C103.171 34.7506 104.628 32.2748 106.87 30.6599C109.106 29.045 112.271 28.4795 114.638 29.887C116.064 30.7353 116.981 32.1429 117.426 33.7452C117.866 35.2345 117.885 36.9059 117.546 38.4203Z" fill="#52D2BC"/>
<path d="M103.366 68.3998C100.804 61.959 102.361 48.3297 106.468 39.765C107.705 37.1824 109.47 34.7632 111.938 33.3242" stroke="#00AD9F" stroke-miterlimit="10" stroke-linecap="round" stroke-linejoin="round"/>
<path opacity="0.2" d="M117.546 38.4202C116.836 41.5557 114.946 44.264 113.275 47.0163C112.396 48.4615 111.574 49.9507 110.807 51.4588C109.683 49.5612 108.911 47.4687 108.697 45.282C108.352 41.6311 109.746 37.7227 112.71 35.5737C114.098 34.5746 115.725 34.0027 117.426 33.7451C117.866 35.2344 117.885 36.9058 117.546 38.4202Z" fill="#5275A0"/>
<path d="M141.315 65.6915C141.121 66.8917 140.763 68.0479 140.248 69.1601C138.42 73.1188 134.583 76.512 128.837 79.2768C128.837 79.2768 128.517 73.0183 128.448 71.3405C128.165 64.1646 120.384 60.1996 115.461 54.9653C112.955 52.2947 111.052 48.9266 110.701 45.2758C110.355 41.625 111.749 37.7165 114.714 35.5675C117.2 33.7704 120.453 33.3808 123.518 33.6133C128.454 34.0091 133.434 36.0765 136.505 39.9347C136.637 40.0792 136.75 40.2363 136.863 40.3871C138.741 42.9571 139.708 46.0864 140.417 49.2031C141.648 54.6008 142.201 60.2184 141.315 65.6915Z" fill="#00AD9F"/>
<path d="M116.836 39.4194C122.224 42.2094 127.619 45.5775 130.752 50.7678C135.13 58.0129 134.175 67.4384 130.803 75.1988" stroke="#00AD9F" stroke-miterlimit="10" stroke-linecap="round" stroke-linejoin="round"/>
<path d="M231.432 111.971C234.867 106.316 233.109 99.0391 234.308 92.5355C235.225 87.5337 238.007 82.8963 241.989 79.7293C244.488 77.7437 247.999 76.3236 250.818 77.8128C251.428 78.1333 252.156 78.592 252.746 78.2275C253.098 78.0139 253.236 77.574 253.324 77.1719C254.04 73.6593 252.351 69.8199 253.732 66.5084C254.473 64.7239 256.012 63.3917 257.638 62.3549C260.778 60.3504 264.452 59.2005 268.17 59.0497C269.156 59.012 270.186 59.0497 271.071 59.4896C272.666 60.2876 273.395 62.2795 273.181 64.0515C272.968 65.8235 271.988 67.4133 270.908 68.8334C267.303 73.5525 262.022 77.6243 261.325 83.5184C261.237 84.2599 261.237 85.0516 261.576 85.7177C261.909 86.3649 262.524 86.8236 262.87 87.4583C263.981 89.5005 261.833 91.8191 259.742 92.8182C257.827 93.7357 255.754 94.3075 253.638 94.5086C252.181 94.6468 250.542 94.6782 249.55 95.7527C247.722 97.7384 249.82 100.912 249.437 103.582C249.198 105.247 247.992 106.592 246.774 107.761C244.52 109.929 242.058 111.87 239.427 113.561C237.291 114.931 235.037 116.137 233.147 117.821C231.256 119.505 229.73 121.786 229.605 124.318" fill="#52D2BC"/>
<path d="M235.954 106.473C236.513 103.733 237.788 101.194 239.05 98.6997C241.022 94.7976 243.031 90.8388 246.008 87.6404C248.269 85.2086 251.026 83.2858 253.324 80.8917C254.963 79.1826 256.357 77.2472 257.456 75.1485C258.053 74.0111 258.568 72.8172 259.365 71.8181C260.32 70.6305 261.62 69.7822 262.757 68.7642C264.289 67.3944 265.52 65.6915 266.349 63.8064" stroke="#00AD9F" stroke-miterlimit="10" stroke-linecap="round" stroke-linejoin="round"/>
<path d="M280.736 115.898C279.964 118.877 278.814 121.824 276.842 124.186C275.48 125.814 273.784 127.102 271.931 128.151C270.977 128.698 269.972 129.176 268.961 129.603C265.03 131.256 260.803 132.192 256.546 132.355C250.341 132.588 243.961 131.218 238.007 132.99C235.276 133.801 232.757 135.277 230.691 137.231C229.398 138.444 228.286 139.845 227.407 141.385L228.217 136.232C229.718 130.69 231.25 125.047 234.315 120.19C236.293 117.042 238.861 114.302 241.593 111.782C245.958 107.748 250.8 104.198 256.144 101.603C260.464 99.5041 265.262 98.0275 270.035 98.6119C274.801 99.19 279.486 102.206 280.975 106.774C281.929 109.709 281.515 112.914 280.736 115.898Z" fill="#5193F4"/>
<path d="M232.274 132.311C236.833 125.563 243.659 120.372 251.384 117.796C256.194 116.187 261.287 115.578 266.16 114.17C271.033 112.763 275.9 110.375 278.758 106.177" stroke="#0B43A4" stroke-miterlimit="10" stroke-linecap="round" stroke-linejoin="round"/>
<path d="M235.276 181.808C235.546 174.877 239.125 168.48 243.477 163.076C247.101 158.571 251.478 154.449 256.885 152.394C258.58 151.753 260.439 151.319 262.198 151.753C263.956 152.186 265.551 153.688 265.583 155.504C265.608 157.031 264.584 158.37 263.504 159.45C259.949 163.013 255.359 165.294 251.051 167.896C243.653 172.37 236.619 178.339 233.687 186.477" fill="#52D2BC"/>
<path d="M238.014 175.744C242.535 165.652 254.241 156.629 261.959 155.504" stroke="#00AD9F" stroke-miterlimit="10" stroke-linecap="round" stroke-linejoin="round"/>
<path d="M232.45 187.319C232.387 186.156 236.174 183.121 237.028 182.348C241.756 178.056 247.371 174.902 253.305 173.042C255.704 172.288 258.26 171.741 260.659 172.319C263.064 172.898 265.268 174.871 265.501 177.459C265.727 179.973 264.044 182.436 261.89 183.649C259.736 184.868 257.224 185.05 254.825 184.912C251.12 184.698 247.477 183.775 243.76 183.8C240.042 183.825 234.811 184.202 232.45 187.319Z" fill="#00AD9F"/>
<path d="M236.305 183.787C243.91 179.665 255.409 176.982 263.761 177.994" stroke="#00AD9F" stroke-miterlimit="10" stroke-linecap="round" stroke-linejoin="round"/>
<path opacity="0.2" d="M141.315 65.6914C141.121 66.8916 140.763 68.0478 140.248 69.16C137.579 63.4984 135.23 56.1088 134.665 47.0351C134.514 44.5782 135.199 42.0522 136.505 39.9346C136.637 40.0791 136.75 40.2362 136.863 40.387C138.741 42.957 139.708 46.0863 140.417 49.203C141.648 54.6007 142.201 60.2183 141.315 65.6914Z" fill="#5275A0"/>
<path d="M167.622 65.3772C173.299 63.3602 179.202 61.7515 184.364 58.6348C185.928 57.6923 187.429 56.5989 188.54 55.1537C189.646 53.7084 190.33 51.861 190.085 50.0513C189.834 48.2165 188.66 46.457 189.055 44.6411C189.319 43.4472 190.211 42.5172 190.895 41.4992C192.522 39.0926 193.005 35.9444 192.183 33.1545C191.291 30.1634 189.049 27.7631 187.774 24.9166C186.732 22.5853 186.361 19.965 186.713 17.439C181.946 17.5018 177.601 20.1095 172.916 20.9767C169.33 21.6428 165.606 21.2783 162.052 22.0952C155.577 23.5844 150.277 29.29 149.272 35.8627C146.27 35.3475 143.036 36.4283 140.945 38.6527C138.728 41.0154 137.478 44.3771 137.679 47.6132C139.142 71.1331 152.6 83.3989 152.6 83.3989C152.6 83.3989 165.455 66.1438 167.622 65.3772Z" fill="#7EE8D4"/>
<path d="M154.918 65.2075C154.327 59.4076 156.356 53.6706 158.679 48.3232C160.946 43.114 163.559 38.0054 167.063 33.5314C170.567 29.0574 175.02 25.2243 180.276 23.0627" stroke="#00AD9F" stroke-miterlimit="10" stroke-linecap="round" stroke-linejoin="round"/>
<path d="M159.973 26.6255C159.376 31.797 159.797 38.0304 161.141 43.0573" stroke="#00AD9F" stroke-miterlimit="10" stroke-linecap="round" stroke-linejoin="round"/>
<path d="M162.108 41.2099C168.011 37.4209 177.092 35.121 184.094 35.5232" stroke="#00AD9F" stroke-miterlimit="10" stroke-linecap="round" stroke-linejoin="round"/>
<path d="M147.671 42.1777C154.779 45.1751 155.068 55.6311 155.263 58.6033" stroke="#00AD9F" stroke-miterlimit="10" stroke-linecap="round" stroke-linejoin="round"/>
<path d="M157.197 51.9552C162.636 48.0531 170.492 46.878 176.276 48.3358" stroke="#00AD9F" stroke-miterlimit="10" stroke-linecap="round" stroke-linejoin="round"/>
<path d="M172.037 23.9424C170.404 25.9594 169.996 28.3598 170.159 30.025" stroke="#00AD9F" stroke-miterlimit="10" stroke-linecap="round" stroke-linejoin="round"/>
<path d="M171.704 28.5483C174.21 27.2664 177.563 26.9711 181.149 27.8697" stroke="#00AD9F" stroke-miterlimit="10" stroke-linecap="round" stroke-linejoin="round"/>
<path d="M31.8751 39.922C32.5407 39.8843 37.1 36.51 38.8521 35.3727C39.3482 35.0522 39.8443 34.7191 40.1897 34.2416C40.5351 33.764 40.6984 33.1105 40.4472 32.5764C40.1332 31.9166 39.6182 31.2568 38.3183 31.2568C36.0512 31.2631 35.26 32.0109 34.1547 33.1482C30.5061 36.931 31.8751 39.922 31.8751 39.922Z" fill="#4A49CA"/>
<path d="M52.3037 53.5387C54.2881 54.431 56.4045 55.317 58.5648 55.0405C59.4 54.9337 60.3169 54.5504 60.5932 53.7586C60.8318 53.08 60.5053 52.2945 59.9652 51.817C59.4251 51.3394 58.7155 51.1069 58.0121 50.9372C55.3746 50.29 51.6631 50.6482 49.0507 51.3897C49.0444 51.3959 51.1168 53.0109 52.3037 53.5387Z" fill="#4A49CA"/>
<path d="M65.3659 24.2253C64.4804 23.666 63.5008 22.9183 63.507 21.8689C63.507 20.8195 64.5998 20.0215 65.6485 20.0152C66.6973 20.0089 67.6706 20.5807 68.4619 21.2782C71.7966 24.2127 71.3821 27.5556 71.3821 27.5556C71.3821 27.5556 66.3519 24.8473 65.3659 24.2253Z" fill="#4A49CA"/>
<path d="M67.9972 15.2837C67.2185 14.9507 66.4209 14.5485 65.9625 13.8322C65.7427 13.4866 65.6171 13.0467 65.749 12.6571C65.9751 12.0099 66.3833 11.4255 68.0223 11.7209C73.2033 12.6634 74.3336 16.2137 74.3336 16.2137C74.3336 16.2137 69.3725 15.8744 67.9972 15.2837Z" fill="#4A49CA"/>
<path d="M83.1758 23.132C85.2544 22.9497 87.4022 21.9192 88.7084 20.2917C89.2045 19.6759 89.6567 19.0036 89.8199 18.2307C89.9832 17.4578 89.8074 16.5781 89.2108 16.0628C88.4823 15.4344 87.3268 15.535 86.5293 16.0628C85.7254 16.5906 85.2105 17.4578 84.796 18.3187C84.2434 19.4811 83.1758 23.132 83.1758 23.132Z" fill="#4A49CA"/>
<path d="M46.0677 98.9573C41.0375 94.521 36.001 90.0784 30.9708 85.6421C28.2892 83.2795 25.5512 80.8414 23.8556 77.6933C20.207 70.9257 22.3108 62.1349 27.2405 56.2345C32.1702 50.3341 39.3922 46.8529 46.6518 44.3206C53.9051 41.7883 61.4598 40.01 68.374 36.6545C72.7134 34.5495 77.0717 31.4202 78.2649 26.7451C78.9808 23.9363 78.3779 20.8133 76.6698 18.4758C74.9617 16.132 72.1734 14.6113 69.2783 14.4417" stroke="#0B43A4" stroke-miterlimit="10" stroke-linecap="round" stroke-linejoin="round"/>
<path d="M86.6925 18.3062C85.3172 22.5288 79.9605 25.0988 77.5176 28.7622" stroke="#0B43A4" stroke-miterlimit="10" stroke-linecap="round" stroke-linejoin="round"/>
<path d="M67.4634 23.1697C68.5184 24.2819 69.7807 25.2056 70.7038 26.4309C72.6506 29.0261 72.8076 33.2424 69.9314 35.8565" stroke="#0B43A4" stroke-miterlimit="10" stroke-linecap="round" stroke-linejoin="round"/>
<path d="M40.3655 46.8152C44.8054 50.2398 50.6395 52.5208 56.2412 52.7344" stroke="#0B43A4" stroke-miterlimit="10" stroke-linecap="round" stroke-linejoin="round"/>
<path d="M30.2046 53.0487C28.1574 47.0164 30.3867 39.7901 35.4735 35.9634" stroke="#0B43A4" stroke-miterlimit="10" stroke-linecap="round" stroke-linejoin="round"/>
<path d="M192.484 27.5683C192.246 26.8206 192.258 25.9031 192.804 25.3439C193.244 24.904 193.973 24.703 194.544 24.9543C198.959 26.896 198.481 33.7892 198.481 33.7892C198.481 33.7892 194.299 33.1859 192.484 27.5683Z" fill="#4A49CA"/>
<path d="M192.377 40.475C189.52 45.6401 199.668 45.2443 203.33 42.203C203.33 42.203 194.839 36.0324 192.377 40.475Z" fill="#4A49CA"/>
<path d="M205.214 27.9579C204.523 27.0153 204.278 25.6078 205.031 24.7092C205.59 24.0431 206.564 23.8358 207.418 23.9991C208.272 24.1625 209.553 24.9543 210.099 25.6329C213.44 29.7927 211.87 33.8582 211.87 33.8582C211.87 33.8582 206.338 29.5099 205.214 27.9579Z" fill="#4A49CA"/>
<path d="M245.518 40.745C245.273 39.9407 245.33 38.9605 245.951 38.3949C246.347 38.0368 246.906 37.9111 247.433 37.9488C247.961 37.9865 248.47 38.1813 248.953 38.4012C249.989 38.8725 250.793 39.702 251.289 40.7262C252.545 43.3151 251.691 46.5135 251.691 46.5135C251.691 46.5135 246.134 42.7495 245.518 40.745Z" fill="#4A49CA"/>
<path d="M232.839 50.2209C231.043 48.6437 228.299 48.1787 226.107 49.1401C225.548 49.3852 225.02 49.7308 224.669 50.2209C223.865 51.3331 224.148 52.9543 224.983 54.0414C225.812 55.1285 227.074 55.7882 228.324 56.3538C230.584 57.378 234.089 57.5854 236.494 58.2012C236.488 58.1949 236.481 53.4193 232.839 50.2209Z" fill="#4A49CA"/>
<path d="M195.649 28.6741C197.144 33.5628 201.37 37.2576 206.074 39.2495C210.778 41.2477 215.958 41.7756 221.064 42.1023C226.163 42.4354 231.325 42.5987 236.255 43.9372C241.059 45.2442 245.851 47.9587 247.911 52.4955C250.423 58.0189 248.2 64.6168 244.67 69.5558C241.147 74.4885 236.4 78.466 232.99 83.4804C231.426 85.7802 230.113 88.4822 230.434 91.2471C230.854 94.9356 233.963 97.6501 236.846 99.9877" stroke="#0B43A4" stroke-miterlimit="10" stroke-linecap="round" stroke-linejoin="round"/>
<path d="M207.405 26.8833C210.784 30.6221 213.484 36.4722 214.144 41.474" stroke="#0B43A4" stroke-miterlimit="10" stroke-linecap="round" stroke-linejoin="round"/>
<path d="M196.039 41.3296C197.973 41.8449 199.932 42.3602 201.929 42.3664C203.926 42.3727 206.243 41.2605 207.682 39.8718" stroke="#0B43A4" stroke-miterlimit="10" stroke-linecap="round" stroke-linejoin="round"/>
<path d="M248.828 41.053C250.636 42.7998 251.741 45.2693 251.836 47.7828C251.93 50.3026 250.536 53.3502 248.859 55.229" stroke="#0B43A4" stroke-miterlimit="10" stroke-linecap="round" stroke-linejoin="round"/>
<path d="M229.881 52.4705C233.498 55.8008 236.645 58.4965 240.664 61.3242C242.497 62.6186 246.14 64.2712 247.76 63.8439" stroke="#0B43A4" stroke-miterlimit="10" stroke-linecap="round" stroke-linejoin="round"/>
<path opacity="0.2" d="M271.932 128.151C270.977 128.698 269.973 129.176 268.962 129.603C265.03 131.255 260.804 132.192 256.546 132.355C250.342 132.588 243.961 131.218 238.008 132.99C235.276 133.8 232.758 135.277 230.692 137.231C230.484 137.332 230.277 137.445 230.07 137.564C229.574 133.361 240.049 127.881 243.233 126.455C248.979 123.878 255.384 122.735 261.664 123.237C264.415 123.457 267.235 123.998 269.502 125.562C270.475 126.235 271.329 127.133 271.932 128.151Z" fill="#5275A0"/>
<path d="M261.657 125.751C264.408 125.971 267.228 126.511 269.495 128.076C271.762 129.64 273.363 132.437 272.836 135.145C272.22 138.299 268.961 140.354 265.771 140.737C262.581 141.127 259.397 140.247 256.25 139.6C249.286 138.167 242.102 137.834 235.037 138.632C233.272 138.827 231.602 139.179 230.063 140.084C229.567 135.88 240.048 130.401 243.232 128.974C248.978 126.392 255.384 125.248 261.657 125.751Z" fill="#52D2BC"/>
<path d="M232.789 137.426C237.988 132.852 251.346 129.747 260.791 130.747C263.636 131.048 266.506 131.897 268.691 133.744" stroke="#00AD9F" stroke-miterlimit="10" stroke-linecap="round" stroke-linejoin="round"/>
<path d="M223.074 86.0255L273.872 85.9187C279.832 85.9062 284.673 90.732 284.686 96.6953C284.699 102.658 279.876 107.503 273.916 107.516L239.169 107.585" stroke="#0B43A4" stroke-miterlimit="10" stroke-linecap="round" stroke-linejoin="round" stroke-dasharray="4 4"/>
<path d="M69.3788 123.344L33.8533 123.42C30.4872 123.426 27.768 126.159 27.7743 129.527C27.7806 132.895 30.5123 135.616 33.8784 135.61L44.234 135.591" stroke="#0B43A4" stroke-miterlimit="10" stroke-linecap="round" stroke-linejoin="round" stroke-dasharray="4 4"/>
<path d="M12.6774 150.873C0.506871 150.898 0.255674 169.065 15.7357 169.027C31.222 168.995 234.359 168.574 243.936 168.556C253.512 168.537 254.524 153.582 242.686 153.607C219.117 153.657 218.339 142.409 231.42 142.384" stroke="#C8DBFB" stroke-miterlimit="10" stroke-linecap="round" stroke-linejoin="round" stroke-dasharray="4 4"/>
<path d="M15.5222 150.364C15.7985 152.004 14.6995 153.557 13.0604 153.839C11.4214 154.116 9.87024 153.016 9.58765 151.376C9.31133 149.736 10.4103 148.184 12.0494 147.901C13.6884 147.625 15.2459 148.731 15.5222 150.364Z" fill="#5193F4"/>
<path d="M237.26 142.466C237.536 144.106 236.437 145.658 234.798 145.941C233.159 146.217 231.608 145.117 231.325 143.477C231.049 141.837 232.148 140.285 233.787 140.003C235.426 139.726 236.977 140.826 237.26 142.466Z" fill="#0B43A4"/>
<path opacity="0.2" d="M240.532 194.978L51.5752 195.368C49.057 195.374 47.0034 193.332 47.0034 190.812L46.746 65.5596C46.7397 63.0398 48.7807 60.9851 51.2989 60.9851L240.255 60.5955C242.774 60.5892 244.827 62.6314 244.827 65.1511L245.085 190.404C245.091 192.924 243.056 194.972 240.532 194.978Z" fill="#5275A0"/>
<path d="M236.833 192.585L47.8763 192.974C45.3581 192.98 43.3045 190.938 43.3045 188.419L43.0471 63.1658C43.0408 60.646 45.0818 58.5913 47.6 58.5913L236.557 58.2017C239.075 58.1954 241.128 60.2376 241.128 62.7573L241.386 188.01C241.392 190.53 239.351 192.578 236.833 192.585Z" fill="white"/>
<path d="M236.248 58.1951L48.1018 58.5847C45.3574 58.5909 43.1406 60.8217 43.1406 63.5676L43.1469 67.8908L241.235 67.4824L241.228 63.1592C241.222 60.4132 238.993 58.1951 236.248 58.1951Z" fill="#0056EC"/>
<path d="M48.3285 192.974L76.7577 192.917L76.5002 67.8218L43.1036 67.8909L43.3485 188.022C43.3548 190.762 45.5842 192.98 48.3285 192.974Z" fill="#C8DBFB"/>
<path d="M236.614 59.4518C238.435 59.4518 239.917 60.9348 239.923 62.757L240.181 188.01C240.181 188.896 239.842 189.725 239.214 190.354C238.592 190.982 237.763 191.328 236.877 191.328L47.9145 191.717C46.0933 191.717 44.6112 190.234 44.605 188.412L44.3475 63.1592C44.3475 62.2732 44.6866 61.4437 45.3146 60.8154C45.9363 60.187 46.7653 59.8414 47.6507 59.8414L236.601 59.4518H236.614ZM236.614 58.1951C236.614 58.1951 236.607 58.1951 236.601 58.1951L47.6444 58.5847C45.1262 58.5909 43.0852 60.6394 43.0915 63.1592L43.349 188.412C43.3553 190.932 45.3962 192.968 47.9145 192.968C47.9145 192.968 47.9208 192.968 47.927 192.968L236.884 192.578C239.402 192.572 241.443 190.523 241.437 188.004L241.179 62.7507C241.173 60.2373 239.132 58.1951 236.614 58.1951Z" fill="#0056EC"/>
<path d="M71.9598 183.416L50.0492 183.46C49.0821 183.46 48.2971 182.681 48.2971 181.714V181.494C48.2971 180.526 49.0758 179.741 50.0429 179.741L71.9536 179.697C72.9207 179.697 73.7057 180.476 73.7057 181.443V181.663C73.7119 182.625 72.927 183.41 71.9598 183.416Z" fill="white"/>
<path d="M69.3286 98.5488L50.6772 98.5866C48.9062 98.5928 47.4681 97.1539 47.4619 95.3819L47.4242 76.7193C47.4179 74.9473 48.856 73.5084 50.6269 73.5021L69.2783 73.4644C71.0493 73.4581 72.4874 74.8971 72.4936 76.6691L72.5313 95.3316C72.5313 97.1036 71.0995 98.5426 69.3286 98.5488Z" fill="white"/>
<path d="M149.178 154.455L84.1931 154.587C82.9309 154.587 81.9073 153.569 81.901 152.306V152.023C81.901 150.76 82.9183 149.736 84.1806 149.73L149.165 149.598C150.428 149.598 151.451 150.616 151.457 151.879V152.161C151.457 153.424 150.44 154.449 149.178 154.455Z" fill="#C8DBFB"/>
<path d="M145.422 80.3702L94.0715 80.4771C92.8092 80.4771 91.7856 79.4591 91.7793 78.1961V77.9133C91.7793 76.6503 92.7966 75.626 94.0589 75.6198L145.41 75.5129C146.672 75.5129 147.696 76.5309 147.702 77.7939V78.0767C147.702 79.3397 146.685 80.3702 145.422 80.3702Z" fill="#C8DBFB"/>
<path d="M226.603 132.336L158.133 132.481C156.871 132.481 155.847 131.463 155.841 130.2V129.917C155.841 128.654 156.858 127.63 158.12 127.624L226.59 127.485C227.853 127.485 228.876 128.503 228.883 129.766V130.049C228.883 131.306 227.865 132.336 226.603 132.336Z" fill="#C8DBFB"/>
<path d="M149.197 164.496L84.212 164.628C82.9497 164.628 81.9261 163.61 81.9198 162.347V162.064C81.9198 160.801 82.9372 159.777 84.1994 159.771L149.184 159.639C150.446 159.639 151.47 160.657 151.476 161.92V162.203C151.483 163.466 150.459 164.496 149.197 164.496Z" fill="#C8DBFB"/>
<path d="M149.215 174.537L84.2308 174.669C82.9685 174.669 81.9449 173.651 81.9386 172.388V172.106C81.9386 170.843 82.956 169.818 84.2182 169.812L149.203 169.68C150.465 169.68 151.489 170.698 151.495 171.961V172.244C151.501 173.513 150.478 174.537 149.215 174.537Z" fill="#C8DBFB"/>
<path d="M225.209 181.091L159.715 181.23C157.631 181.236 155.935 179.546 155.935 177.459L155.878 149.315C155.872 147.229 157.561 145.532 159.646 145.532L225.14 145.394C227.225 145.388 228.92 147.078 228.92 149.164L228.977 177.309C228.983 179.395 227.294 181.085 225.209 181.091Z" fill="#C8DBFB"/>
<path d="M54.0055 63.1402C54.0055 64.0262 53.2896 64.7426 52.4104 64.7426C51.5312 64.7426 50.8091 64.0262 50.8091 63.1465C50.8091 62.2668 51.525 61.5442 52.4042 61.5442C53.2833 61.5442 54.0055 62.2542 54.0055 63.1402Z" fill="#C8DBFB"/>
<path d="M59.1865 64.7301C60.0709 64.7301 60.7879 64.0127 60.7879 63.1277C60.7879 62.2428 60.0709 61.5254 59.1865 61.5254C58.3021 61.5254 57.5851 62.2428 57.5851 63.1277C57.5851 64.0127 58.3021 64.7301 59.1865 64.7301Z" fill="#C8DBFB"/>
<path d="M67.5639 63.109C67.5639 63.995 66.848 64.7114 65.9688 64.7114C65.0833 64.7114 64.3674 63.995 64.3674 63.1153C64.3674 62.2293 65.0833 61.5129 65.9625 61.5129C66.8417 61.5129 67.5576 62.2293 67.5639 63.109Z" fill="#C8DBFB"/>
<path d="M89.2627 78.5338C89.5175 75.9889 87.6623 73.7192 85.1189 73.4642C82.5756 73.2092 80.3072 75.0655 80.0523 77.6103C79.7975 80.1552 81.6527 82.425 84.1961 82.68C86.7394 82.935 89.0078 81.0787 89.2627 78.5338Z" fill="#C8DBFB"/>
<path d="M70.6285 102.464L50.1246 102.508C49.6473 102.508 49.2642 102.124 49.2579 101.647V101.54C49.2579 101.062 49.641 100.679 50.1183 100.673L70.6222 100.629C71.0995 100.629 71.4826 101.012 71.4889 101.49V101.597C71.4889 102.074 71.1058 102.464 70.6285 102.464Z" fill="white"/>
<path d="M70.6348 106.379L50.1308 106.423C49.6535 106.423 49.2705 106.039 49.2642 105.562V105.455C49.2642 104.977 49.6473 104.594 50.1245 104.588L70.6285 104.544C71.1058 104.544 71.4888 104.927 71.4951 105.405V105.511C71.4951 105.989 71.1121 106.379 70.6348 106.379Z" fill="white"/>
<path d="M94.1091 114.66L88.3128 114.717L88.3567 139.022L83.3516 139.035C81.587 139.041 80.1551 137.608 80.1489 135.843L80.0547 90.8953C80.0484 89.1107 81.4928 87.6592 83.2763 87.6592L94.0463 87.634L94.1091 114.66Z" fill="#C8DBFB"/>
<path d="M131.72 87.5588V88.1872C133.453 88.1872 134.866 89.5948 134.866 91.3291L134.954 135.152C134.954 135.994 134.627 136.785 134.037 137.382C133.447 137.979 132.655 138.306 131.814 138.312L83.9168 138.413C82.1836 138.413 80.7706 137.005 80.7706 135.271L80.6827 91.4484C80.6827 90.6064 81.0092 89.8147 81.5995 89.2177C82.1898 88.6208 82.9811 88.294 83.8226 88.2877L131.713 88.1872L131.72 87.5588ZM131.72 87.5588H131.713L83.8226 87.6594C81.7377 87.6657 80.0484 89.356 80.0547 91.4422L80.1426 135.265C80.1489 137.351 81.8382 139.035 83.9168 139.035H83.9231L131.814 138.934C133.899 138.928 135.588 137.238 135.582 135.152L135.494 91.3291C135.494 89.2429 133.805 87.5588 131.72 87.5588Z" fill="#C8DBFB"/>
<path d="M211.688 123.627L147.809 109.181C145.774 108.722 144.499 106.699 144.958 104.663L152.142 72.8488C152.6 70.8129 154.622 69.5373 156.657 69.996L220.537 84.4422C222.571 84.9009 223.846 86.9242 223.388 88.9601L216.203 120.774C215.745 122.81 213.723 124.086 211.688 123.627Z" fill="#C8DBFB"/>
<path d="M88.0616 210.154L79.119 210.173L76.9335 198.78L90.203 198.749L88.0616 210.154Z" fill="#0056EC"/>
<path d="M79.4078 198.774C79.4078 199.704 79.232 201.262 79.8537 201.287C80.4754 201.312 80.218 199.804 80.9213 199.848C81.3735 199.873 80.7141 204.8 82.4159 204.919C83.584 205.001 83.3705 202.506 83.4898 200.942C83.5714 199.886 84.9216 200.093 84.9342 200.791C84.9467 201.576 84.8965 202.098 84.9342 202.99C84.997 204.479 87.2829 204.084 87.2012 202.098C87.1196 200.112 87.1949 198.768 87.1949 198.768L79.4078 198.774Z" fill="#C8DBFB"/>
<path d="M77.2727 205.654C77.0906 205.654 76.9147 205.635 76.7452 205.597C76.0858 205.453 75.6273 205.107 75.3699 204.567C74.4593 202.631 76.8582 199.012 76.9524 198.848L77.078 199.502C77.0592 199.54 74.9679 202.65 75.7906 204.391C75.9853 204.805 76.3307 205.063 76.8519 205.176C76.9964 205.208 77.1471 205.22 77.2978 205.22C80.5194 205.214 86.0206 199.213 86.0834 199.144C86.3095 198.874 86.7302 199.131 86.5795 199.357C86.322 199.646 80.7329 205.647 77.2727 205.654Z" fill="#0C2340"/>
<path opacity="0.2" d="M171.195 49.8317C158.491 49.3478 141.001 58.7482 147.206 81.7339C147.074 83.6756 148.236 85.0643 149.473 84.6873C150.71 84.3103 149.617 80.6217 149.617 80.6217C151.734 63.5301 155.69 60.5768 162.403 60.6396L178.16 60.6082C182.053 61.18 189.131 63.9071 190.192 77.5867L194.117 78.3093C194.425 68.4251 192.038 50.6297 171.195 49.8317Z" fill="#5275A0"/>
<path d="M171.195 47.8334C158.491 47.3495 141.001 56.7499 147.206 79.7357L149.617 78.6235C151.734 61.5318 155.69 58.5785 162.403 58.6413L178.16 58.6099C182.053 59.1817 189.319 62.644 190.38 76.3236L194.117 76.3173C194.425 66.4268 192.038 48.6314 171.195 47.8334Z" fill="#EF832B"/>
<path d="M168.595 48.2041L166.711 52.3513C166.711 52.3513 166.937 54.6889 169.23 54.6386C171.522 54.5883 171.829 53.5327 171.829 53.5327L172.131 48.7696L168.595 48.2041Z" fill="#FFB9A3"/>
<path d="M178.298 44.7419C176.15 48.5435 175.196 49.7311 172.382 50.3029C168.74 51.0444 164.658 48.5875 166.554 42.53C168.099 37.591 170.448 38.3514 172.74 38.5399C175.032 38.7221 180.621 40.6323 178.298 44.7419Z" fill="#FFB9A3"/>
<path d="M169.745 41.7445C169.173 41.4492 168.438 41.7005 167.992 42.1655C167.534 42.6494 167.314 43.3657 167.509 44.0004C166.63 44.0129 165.857 44.8738 165.939 45.7535C165.336 44.3522 165.663 42.8881 165.543 41.4492C165.424 40.0102 165.581 38.4519 166.51 37.3522C166.893 36.8998 167.383 36.5542 167.905 36.2777C169.883 35.222 172.376 35.1906 174.385 36.1834C174.8 36.3908 175.842 37.0443 177.299 36.6924C180.075 36.0201 181.695 37.8989 180.031 39.6583C180.565 39.8531 181.155 40.0919 181.394 40.6072C181.457 40.7391 181.488 40.9025 181.406 41.0219C181.35 41.1036 181.249 41.1476 181.149 41.179C180.684 41.3361 180.176 41.3738 179.686 41.2921C179.874 41.4492 180.904 41.512 181.212 42.1153C182.041 43.7113 178.763 42.907 178.26 42.7436C178.832 42.8504 180.326 44.0443 179.849 44.8675C179.755 45.0309 177.733 46.2059 175.61 43.7364C175.114 43.1646 174.498 42.6305 173.77 42.4357C173.199 42.2849 172.596 42.4923 172.037 42.7059C171.629 42.8567 170.592 43.4914 170.297 43.1144C169.989 42.7059 170.41 42.0713 169.745 41.7445Z" fill="#0C2340"/>
<path d="M190.789 76.3175C190.223 78.2591 189.658 78.4476 190.336 78.7555C191.021 79.0634 191.574 77.9764 191.574 77.9764L194.726 78.6047C194.726 78.6047 194.016 76.5562 193.52 76.3112C193.024 76.0661 190.789 76.3175 190.789 76.3175Z" fill="#FFB9A3"/>
<path d="M149.617 78.6172C150.032 79.6414 150.145 79.6477 150.716 80.8793C151.815 83.2294 149.247 86.9431 147.652 82.8901C147.212 81.7779 147.206 79.7357 147.206 79.7357L149.617 78.6172Z" fill="#FFB9A3"/>
<path d="M174.235 36.5163C175.447 36.6357 176.59 36.2084 177.777 36.0827C178.806 35.9696 180.025 36.1267 180.69 37.0253C180.847 37.2389 181.199 37.0504 181.055 36.8117C180.477 35.8377 179.34 35.5109 178.266 35.5863C176.904 35.6743 175.61 36.2524 174.228 36.1644C174.002 36.1393 174.009 36.4912 174.235 36.5163Z" fill="#0C2340"/>
<path d="M175.101 35.3288C173.739 35.6555 172.376 34.9329 171.001 35.0837C169.713 35.222 168.514 35.8566 167.559 36.7175C167.333 36.9248 167.634 37.3207 167.892 37.1448C168.96 36.4159 170.102 35.6932 171.434 35.6807C172.709 35.6681 173.971 36.2525 175.227 35.7875C175.503 35.6744 175.396 35.2534 175.101 35.3288Z" fill="#0C2340"/>
<path d="M166.724 37.3396C166.215 37.6412 165.744 38.012 165.437 38.5272C165.141 39.0237 165.003 39.608 164.959 40.1799C164.909 40.8459 165.003 41.5183 165.129 42.1781C165.217 42.6493 165.248 43.3908 165.807 43.5479C166.058 43.617 166.171 43.284 165.977 43.1458C165.794 43.0201 165.763 42.7436 165.719 42.5425C165.663 42.2786 165.606 42.021 165.562 41.7571C165.468 41.223 165.405 40.6763 165.437 40.1296C165.506 39.0614 166.014 38.2068 166.875 37.591C167.019 37.4842 166.887 37.2391 166.724 37.3396Z" fill="#0C2340"/>
<path d="M182.656 40.8772C182.386 40.3808 181.94 39.9786 181.419 39.7587C180.904 39.5325 180.213 39.4257 179.711 39.7273C179.554 39.8215 179.617 40.0792 179.805 40.0729C180.05 40.0729 180.295 40.0478 180.54 40.054C180.778 40.0603 181.011 40.1169 181.237 40.1923C181.695 40.3494 182.097 40.6384 182.373 41.0469C182.487 41.2165 182.757 41.0657 182.656 40.8772Z" fill="#0C2340"/>
<path d="M112.773 136.735C119.436 139.186 125.22 146.826 123.889 152.388C122.388 158.665 118.061 161.373 118.061 161.373L116.698 158.853C116.698 158.853 120.158 153.443 119.857 150.886C119.373 146.795 114.211 144.055 114.211 144.055L112.773 136.735Z" fill="#0B43A4"/>
<path d="M96.3762 207.565C96.3762 207.565 92.288 209.217 91.2643 210.154L99.3654 210.135L99.3592 207.558L96.3762 207.565Z" fill="#0C2340"/>
<path d="M114.28 207.408C114.28 207.408 115.442 208.752 115.656 210.103L110.129 210.116C110.223 209.186 110.619 208.287 111.159 207.414L114.28 207.408Z" fill="#0C2340"/>
<path d="M114.619 207.527L110.845 207.533C110.92 203.084 110.004 187.922 109.118 176.586C108.597 169.938 108.082 164.597 107.781 163.516L109.803 163.07L117.433 161.373C118.739 167.343 115.725 194.752 114.619 207.527Z" fill="#047F76"/>
<path d="M100.747 163.277C97.8017 167.915 97.0419 201.444 95.811 207.659L99.3906 207.86C99.3906 207.86 103.504 186.722 112.258 162.957L100.747 163.277Z" fill="#009790"/>
<path opacity="0.2" d="M113.765 162.957C112.038 167.651 110.487 172.244 109.118 176.586C108.597 169.938 108.082 164.597 107.781 163.516L109.803 163.07L113.765 162.957Z" fill="#5275A0"/>
<path d="M100.747 163.277C97.8017 167.915 97.0419 201.444 95.811 207.659L99.3906 207.86C99.3906 207.86 103.504 186.722 112.258 162.957L100.747 163.277Z" fill="#009790"/>
<path d="M102.995 125.845C102.995 125.845 100.703 134.58 106.43 134.573L106.091 136.804L110.437 137.282L109.495 134.171C109.495 134.171 110.355 128.679 110.412 127.686C110.519 125.833 105.331 122.565 102.995 125.845Z" fill="#FFB9A3"/>
<path d="M88.8397 116.048L87.1504 116.051L87.1644 123.183L88.8537 123.18L88.8397 116.048Z" fill="#0C2340"/>
<path d="M92.8343 116.043L83.1507 116.062C82.4724 116.062 81.9198 115.515 81.9198 114.836V114.585C81.9198 113.906 82.4662 113.353 83.1444 113.353L92.828 113.334C93.5063 113.334 94.0589 113.881 94.0589 114.56V114.811C94.0652 115.49 93.5125 116.043 92.8343 116.043Z" fill="#0056EC"/>
<path d="M86.6988 125.047C86.6549 123.432 85.3172 123.853 86.052 121.214C86.5041 119.58 89.8765 121.478 89.4557 122.609C89.0349 123.74 88.5514 125.531 88.5514 125.531L86.6988 125.047Z" fill="#FFB9A3"/>
<path d="M106.468 136.289C97.9085 136.854 97.3433 139.745 93.5125 139.292C87.8418 138.626 88.834 128.089 89.5373 124.312L86.1525 124.318C86.1525 124.318 80.0484 148.316 99.3277 143.879C98.5867 148.083 103.385 154.951 98.7312 163.283C106.047 165.269 112.88 165.759 118.726 163.246C117.703 161.863 120.824 147.92 114.714 137.885C113.52 135.918 107.096 136.245 106.468 136.289Z" fill="#0056EC"/>
<path d="M106.468 136.289C97.9085 136.854 97.3433 139.745 93.5125 139.292C87.8418 138.626 88.834 128.089 89.5373 124.312L86.1525 124.318C86.1525 124.318 80.0484 148.316 99.3277 143.879C98.5867 148.083 103.385 154.951 98.7312 163.283C106.047 165.269 112.88 165.759 118.726 163.246C117.703 161.863 120.824 147.92 114.714 137.885C113.52 135.918 107.096 136.245 106.468 136.289Z" fill="#0056EC"/>
<path d="M105.287 127.517C105.846 127.661 106.493 127.768 106.795 128.239C106.989 128.547 106.977 128.931 106.958 129.289C107.058 128.912 107.479 128.641 107.875 128.692C108.277 128.736 108.616 129.094 108.622 129.484C108.628 129.666 108.566 129.842 108.496 130.011C108.327 130.439 108.113 130.841 107.862 131.224C108.559 131.482 109.15 133.53 109.495 134.165C110.669 133.87 113.288 132.858 113.514 128.692C113.621 126.75 113.031 124.425 110.927 123.137C109.438 122.226 106.977 122.213 105.275 122.647C103.893 122.999 101.695 124.381 102.719 125.99C103.234 126.807 104.364 127.284 105.287 127.517Z" fill="#EF832B"/>
<path d="M112.622 124.865C113.42 124.601 114.431 124.739 114.908 125.405C115.279 125.927 115.247 126.606 115.367 127.228C115.423 127.529 115.53 127.831 115.762 128.038C116.039 128.283 116.441 128.346 116.817 128.365C117.74 128.415 118.67 128.296 119.58 128.453C120.491 128.61 121.421 129.119 121.678 129.967C121.822 130.439 121.741 130.954 121.917 131.413C122.174 132.104 122.909 132.5 123.549 132.902C124.912 133.756 126.074 134.913 126.909 136.251C127.443 137.099 127.851 138.042 127.914 139.028C127.977 140.015 128.693 141.322 128.498 142.29C128.291 143.339 127.261 144.759 125.226 145.413C121.709 146.544 120.592 147.034 117.219 145.029C116.811 144.791 116.02 143.967 115.649 143.672C115.36 143.44 115.178 143.107 115.078 142.761C114.795 141.793 115.122 140.75 115.624 139.87C116.127 138.991 116.811 138.212 117.326 137.338C117.634 136.81 117.885 136.226 117.86 135.623C117.847 135.396 117.791 135.164 117.627 135.001C117.483 134.862 117.282 134.793 117.081 134.756C116.34 134.611 115.524 134.762 114.858 134.429C114.205 134.108 113.847 133.317 114.048 132.638C114.18 132.186 114.525 131.802 114.619 131.343C114.758 130.677 114.343 129.999 113.765 129.609C113.188 129.22 112.478 129.069 111.781 128.956C111.435 128.899 111.077 128.843 110.801 128.642C110.456 128.396 110.299 127.963 110.305 127.554C110.33 126.247 111.391 125.273 112.622 124.865Z" fill="#EF832B"/>
<path d="M112.019 128.384C113.206 128.528 113.966 129.729 113.633 130.866C113.326 131.897 112.541 132.745 112.516 133.863C112.497 134.793 113.131 135.453 114.01 135.642C114.469 135.742 114.927 135.717 115.392 135.704C115.856 135.698 116.409 135.686 116.792 136C117.301 136.427 117.163 137.181 116.955 137.728C116.717 138.356 116.384 138.903 116.353 139.594C116.34 139.82 116.723 139.883 116.755 139.651C116.924 138.551 117.841 137.558 117.546 136.396C117.276 135.327 116.145 135.239 115.222 135.271C114.682 135.29 114.111 135.302 113.615 135.045C113.012 134.73 112.855 134.083 112.98 133.449C113.213 132.299 114.205 131.356 114.067 130.118C113.947 129.069 113.049 128.233 112.007 128.158C111.875 128.145 111.881 128.365 112.019 128.384Z" fill="#EF832B"/>
<path d="M103.265 123.194C104.816 122.389 106.474 121.893 108.239 122.144C109.872 122.377 111.348 123.187 112.547 124.3C112.735 124.469 112.98 124.212 112.823 124.023C110.537 121.321 105.928 120.737 103.165 123.055C103.077 123.118 103.177 123.238 103.265 123.194Z" fill="#EF832B"/>
<path d="M212.95 133.442L211.537 136.289L214.991 137.703L215.362 134.429L212.95 133.442Z" fill="#FFB9A3"/>
<path d="M215.035 124.174C207.192 127.592 210.407 135.874 215.18 134.9C217.503 134.429 218.678 126.939 218.678 126.939L215.035 124.174Z" fill="#FFB9A3"/>
<path d="M217.642 122.993C217.384 122.515 217.139 122 216.712 121.66C216.285 121.321 215.613 121.208 215.217 121.579C214.69 122.069 214.998 122.986 215.531 123.47C215.073 123.527 214.527 123.206 214.188 123.527C213.93 123.765 214.018 124.193 214.169 124.513C214.514 125.261 215.079 125.914 215.776 126.354C215.381 126.581 214.916 127.02 215.155 127.41C215.224 127.517 215.331 127.592 215.4 127.699C215.55 127.95 215.406 128.277 215.249 128.529C215.004 128.937 214.734 129.333 214.451 129.716C214.721 129.345 215.381 129.496 215.575 129.911C215.77 130.326 215.601 130.835 215.293 131.174C215.123 131.362 214.91 131.52 214.659 131.576C214.445 131.626 213.491 134.567 214.232 135.145C215.148 135.855 218.263 135.239 218.715 134.435C219.168 134.925 219.827 135.296 220.48 135.164C221.133 135.032 221.629 134.228 221.278 133.662C221.981 133.92 222.841 133.694 223.325 133.116C223.808 132.537 223.877 131.651 223.494 131.004C223.877 130.891 223.959 130.37 223.859 129.98C223.658 129.195 223.017 128.528 222.232 128.309C222.628 128.315 222.942 127.913 222.961 127.517C222.979 127.121 222.772 126.744 222.521 126.436C221.786 125.525 220.913 125.286 219.827 125.148C218.734 125.022 218.131 123.897 217.642 122.993Z" fill="#4A49CA"/>
<path d="M210.294 207.018C210.294 207.018 205.703 209.224 205.088 209.908C205.088 209.908 214.118 210.317 214.828 209.89C215.538 209.462 213.384 207.012 213.384 207.012L210.294 207.018Z" fill="#0C2340"/>
<path d="M227.369 204.523C227.369 204.523 223.337 207.634 222.873 208.432C222.873 208.432 232.393 207.018 232.393 206.396C232.393 205.774 230.383 203.876 230.383 203.876L227.369 204.523Z" fill="#0C2340"/>
<path d="M214.728 164.44C214.558 165.376 208.272 190.197 226.258 205.083L231.464 203.889C231.464 203.889 225.404 198.202 222.546 187.96C219.846 178.277 221.987 177.328 223.607 171.999C225.404 166.099 224.066 161.813 224.066 161.813L214.728 164.44Z" fill="#D8742A"/>
<path d="M206.137 164.364C203.286 171.182 198.394 194.413 209.057 207.489L214.382 207.477C214.382 207.477 210.187 202.877 209.716 192.201C209.245 181.525 211.958 176.837 213.874 173.319C215.789 169.8 217.56 163.811 217.56 163.811L206.137 164.364Z" fill="#EF832B"/>
<path d="M202.381 122.106C200.968 127.096 200.504 136.32 207.587 140.034L212.329 138.878C212.329 138.878 203.775 134.391 205.609 123.055L202.381 122.106Z" fill="#0B43A4"/>
<path d="M189.313 119.549L192.993 119.097C192.993 119.097 192.547 134.567 210.407 135.874C224.041 136.867 225.108 162.467 225.108 162.467C220.712 165.426 213.34 166.325 203.889 165.646C203.889 165.646 204.491 147.386 202.99 142.384C202.99 142.384 188.151 137.709 189.313 119.549Z" fill="#0056EC"/>
<path d="M184.81 116.74C184.188 117.463 186.788 118.38 189.313 119.549L192.547 119.153C192.547 119.153 192.585 118.506 192.547 117.834C192.509 117.161 192.17 116.778 191.787 117.356C191.404 117.934 189.771 118.129 188.999 117.601C188.22 117.073 185.432 116.018 184.81 116.74Z" fill="#FFB9A3"/>
<path d="M202.381 122.106C201.194 120.944 201.515 121.013 201.515 121.013L205.126 121.83C205.126 121.83 205.917 120.064 206.595 120.02C207.267 119.97 206.086 121.233 206.356 121.704C206.627 122.176 205.615 123.062 205.615 123.062L202.381 122.106Z" fill="#FFB9A3"/>
<path d="M219.67 124.696C220.084 124.809 220.518 124.859 220.932 124.997C221.328 125.129 221.692 125.336 221.981 125.638C222.452 126.128 222.628 126.945 222.226 127.523C222.037 127.793 222.471 128.133 222.684 127.875C223.337 127.102 223.13 125.996 222.49 125.28C222.157 124.909 221.686 124.67 221.215 124.52C220.725 124.369 220.179 124.287 219.67 124.362C219.5 124.394 219.519 124.658 219.67 124.696Z" fill="#4A49CA"/>
<path d="M222.936 131.4C223.4 131.658 223.808 132.123 223.651 132.688C223.482 133.291 222.885 133.643 222.408 133.976C222.188 134.133 222.377 134.466 222.622 134.341C223.281 133.995 223.978 133.511 224.116 132.72C224.242 131.984 223.764 131.381 223.136 131.061C222.91 130.948 222.716 131.281 222.936 131.4Z" fill="#4A49CA"/>
<path d="M214.69 135.145C215.506 135.686 216.505 135.899 217.478 135.786C218.414 135.679 219.469 135.309 220.084 134.554C220.235 134.372 220.034 134.033 219.808 134.196C219.08 134.718 218.351 135.151 217.447 135.283C216.561 135.415 215.638 135.283 214.822 134.906C214.671 134.844 214.545 135.051 214.69 135.145Z" fill="#4A49CA"/>
<path d="M223.155 125.789C223.557 126.128 223.62 126.694 223.494 127.171C223.419 127.448 223.268 127.705 223.111 127.944C222.935 128.214 222.741 128.472 222.54 128.723C222.402 128.893 222.615 129.126 222.785 128.968C223.319 128.472 223.84 127.938 223.94 127.178C224.022 126.6 223.79 125.933 223.237 125.676C223.174 125.651 223.086 125.739 223.155 125.789Z" fill="#4A49CA"/>
<path d="M116.924 10.9982L115.455 7.39769L129.666 2L116.924 10.9982Z" fill="#0B43A4"/>
<path d="M117.64 8.7801L129.666 2L121.295 10.5018L117.64 8.7801Z" fill="#5193F4"/>
<path d="M112.202 5.93359L129.666 2L115.455 7.39769L112.202 5.93359Z" fill="#5193F4"/>
<path d="M117.64 8.78003L116.924 10.9982L119.097 9.46495L117.64 8.78003Z" fill="#0056EC"/>
<path d="M115.254 10.5145C111.542 9.88611 106.506 13.6438 108.672 17.5522C109.407 18.8843 113.213 18.3062 112.93 16.8359C112.792 16.1321 111.932 15.8305 111.222 15.9122C107.077 16.3897 106.908 19.8646 107.096 20.7506C108.044 25.3251 115.053 23.7793 117.408 23.1321" stroke="#C8DBFB" stroke-miterlimit="10" stroke-linecap="round" stroke-linejoin="round" stroke-dasharray="4 4"/>
</g>
<defs>
<clipPath id="clip0">
<rect width="282" height="211" fill="white" transform="translate(3 2)"/>
</clipPath>
</defs>
</svg>
